<?xml version="1.0" standalone="no"?>
<!DOCTYPE svg PUBLIC "-//W3C//DTD SVG 20010904//EN"
 "http://www.w3.org/TR/2001/REC-SVG-20010904/DTD/svg10.dtd">
<svg version="1.0" xmlns="http://www.w3.org/2000/svg"
 width="1008.000000pt" height="1008.000000pt" viewBox="0 0 1008.000000 1008.000000"
 preserveAspectRatio="xMidYMid meet">
<metadata>
Created by potrace 1.14, written by Peter Selinger 2001-2017
</metadata>
<g transform="translate(0.000000,1008.000000) scale(0.100000,-0.100000)"
fill="#000000" stroke="none">
<path d="M4719 8473 c-13 -16 -12 -17 4 -4 9 7 17 15 17 17 0 8 -8 3 -21 -13z"/>
<path d="M4660 8461 c0 -7 -5 -9 -12 -5 -7 5 -8 3 -3 -5 5 -9 10 -10 18 -2 6
6 8 14 4 18 -4 3 -7 1 -7 -6z"/>
<path d="M4753 8464 c3 -6 2 -16 -4 -24 -5 -9 -9 -10 -9 -3 0 6 -13 11 -30 11
-16 -1 -30 -5 -30 -9 0 -10 -32 -4 -59 10 -26 15 -31 14 -31 -5 0 -8 -5 -12
-10 -9 -6 4 -7 11 -4 17 4 7 2 8 -5 4 -6 -4 -9 -12 -6 -17 4 -5 1 -9 -4 -9 -6
0 -11 4 -11 9 0 5 -7 11 -15 15 -8 3 -14 2 -14 -2 3 -21 -3 -24 -16 -6 -13 16
-14 16 -9 1 5 -13 2 -16 -12 -10 -13 5 -15 3 -10 -8 4 -8 1 -6 -6 3 -13 15
-15 15 -24 1 -9 -14 -12 -14 -27 1 -15 15 -20 14 -19 -4 1 -8 -62 -5 -76 4 -7
4 -12 4 -12 -1 0 -4 -21 -7 -47 -6 -27 0 -55 -3 -63 -9 -12 -8 -12 -8 3 -4 11
3 16 2 12 -4 -8 -13 -51 -5 -73 12 -14 11 -14 9 1 -8 14 -17 15 -21 2 -21 -8
0 -15 4 -15 9 0 4 -5 8 -11 8 -6 0 -9 -6 -6 -13 3 -8 -5 -12 -23 -12 -20 -1
-27 3 -23 15 4 12 2 12 -9 -2 -10 -12 -19 -13 -31 -7 -11 7 -17 7 -17 0 0 -5
6 -11 13 -14 6 -3 2 -4 -11 -4 -16 1 -21 6 -17 17 3 8 -6 2 -19 -15 -14 -16
-25 -25 -26 -18 0 6 6 13 13 16 9 3 9 8 -2 18 -8 8 -11 9 -7 2 8 -14 -10 -27
-19 -13 -4 6 -11 8 -16 4 -5 -3 -6 -10 -3 -16 5 -7 1 -9 -9 -5 -9 3 -22 0 -29
-7 -15 -15 -41 -10 -32 6 5 7 2 8 -5 4 -7 -5 -10 -14 -7 -21 5 -14 -18 -14
-31 0 -4 4 -2 5 6 0 10 -5 12 -4 7 4 -4 6 -12 9 -17 5 -5 -3 -7 -9 -4 -14 3
-4 -2 -11 -11 -14 -9 -4 -13 -2 -8 5 4 7 1 10 -7 7 -8 -3 -13 -11 -11 -17 2
-9 -3 -9 -20 0 -20 11 -21 10 -11 -3 11 -12 8 -14 -17 -10 -20 3 -30 0 -30 -9
0 -8 -6 -5 -16 7 -8 10 -13 14 -10 7 10 -19 -12 -25 -24 -6 -10 16 -10 15 -5
-4 5 -18 3 -22 -9 -17 -11 4 -15 2 -11 -8 4 -11 -2 -13 -29 -10 -27 3 -35 0
-39 -15 -4 -16 -5 -16 -6 0 -1 21 -21 23 -21 2 0 -13 -4 -14 -20 -5 -16 9 -19
8 -13 -7 5 -12 2 -15 -9 -10 -9 3 -19 3 -23 -1 -7 -7 -12 -8 -40 -11 -8 0 -15
-9 -15 -18 0 -15 -2 -16 -10 -3 -5 8 -10 13 -11 10 -6 -34 -9 -43 -15 -48 -4
-4 -4 1 -1 11 6 15 3 17 -14 12 -16 -5 -20 -4 -14 6 3 8 -2 4 -12 -7 -15 -17
-24 -19 -37 -12 -16 9 -16 8 -6 -11 6 -12 16 -18 22 -15 7 5 8 2 3 -5 -5 -9
-10 -10 -18 -2 -15 15 -30 14 -21 -1 4 -6 3 -8 -4 -4 -6 3 -13 2 -17 -4 -4 -7
-12 -7 -26 0 -13 7 -19 7 -20 0 -1 -5 -2 -14 -3 -19 0 -5 -5 -13 -10 -18 -5
-4 -6 -3 -3 3 4 7 1 14 -7 17 -10 4 -12 -1 -9 -16 5 -22 5 -22 -10 -2 -16 19
-16 19 -17 1 0 -16 -2 -16 -16 -6 -12 11 -15 11 -12 -1 2 -8 8 -18 13 -22 6
-5 4 -7 -5 -6 -31 3 -39 -1 -34 -18 5 -15 4 -16 -5 -3 -10 13 -13 13 -24 -2
-12 -15 -14 -15 -25 0 -12 15 -12 15 -9 -3 3 -15 -1 -21 -14 -22 -22 -2 -24 7
-6 26 9 11 9 12 0 7 -7 -4 -18 -16 -24 -28 -7 -13 -7 -18 -1 -14 6 3 14 2 17
-4 4 -6 3 -10 -2 -9 -20 3 -77 -3 -65 -8 6 -2 10 -9 7 -13 -3 -5 -13 -6 -22
-3 -11 5 -14 3 -8 -6 6 -11 3 -11 -16 0 -22 11 -23 11 -11 -4 12 -14 10 -16
-15 -12 -15 2 -22 2 -15 -1 15 -7 16 -34 1 -34 -5 0 -8 4 -5 8 3 5 -1 9 -9 9
-8 0 -12 -4 -9 -9 3 -4 -7 -8 -23 -8 -21 0 -24 -3 -13 -9 8 -6 18 -7 24 -4 5
3 6 1 2 -6 -4 -6 -11 -9 -16 -6 -4 3 -13 -2 -20 -10 -10 -12 -17 -12 -34 -3
-18 10 -19 9 -9 -4 10 -12 10 -15 -2 -15 -8 0 -15 5 -15 10 0 6 -3 7 -7 4 -3
-4 2 -17 13 -29 15 -18 16 -20 2 -9 -14 10 -18 10 -18 1 0 -8 -8 -10 -21 -7
-16 4 -19 2 -15 -10 6 -14 4 -14 -11 -2 -9 8 -14 9 -10 2 4 -6 3 -14 -3 -18
-6 -4 -7 -11 -4 -17 4 -6 -1 -6 -14 1 -26 14 -32 14 -32 0 0 -5 5 -7 10 -4 6
3 10 -2 10 -11 0 -10 -3 -14 -7 -11 -3 4 -12 2 -20 -5 -11 -9 -12 -7 -7 8 5
16 4 16 -5 4 -6 -8 -16 -15 -23 -15 -15 0 -17 -36 -3 -48 6 -5 4 -7 -5 -4 -8
2 -14 10 -12 17 2 10 0 11 -11 2 -8 -7 -18 -8 -23 -4 -4 4 -2 -2 6 -12 9 -11
10 -17 3 -13 -13 8 -53 -12 -53 -27 0 -5 9 -1 19 8 15 14 21 15 27 4 4 -7 3
-10 -1 -5 -5 4 -19 -2 -31 -14 -14 -13 -29 -19 -40 -15 -15 6 -15 4 -3 -10 12
-15 11 -16 -9 -10 -24 8 -29 -3 -9 -23 10 -11 8 -12 -10 -2 -16 8 -22 8 -26
-4 -4 -10 -1 -12 11 -8 14 6 15 5 2 -9 -13 -14 -16 -14 -23 -1 -8 12 -13 11
-32 -7 -13 -12 -21 -28 -18 -36 3 -9 -2 -14 -16 -14 -18 0 -20 -3 -12 -18 7
-14 6 -19 -4 -19 -8 0 -12 4 -9 8 2 4 -1 11 -7 15 -8 5 -9 3 -4 -6 6 -10 3
-12 -11 -7 -15 6 -14 3 5 -13 26 -22 21 -26 -12 -8 -19 10 -20 9 -10 -4 13
-15 8 -28 -9 -28 -5 0 -6 6 -3 13 4 6 0 4 -8 -5 -8 -10 -18 -14 -22 -10 -5 4
-5 1 -1 -6 4 -7 13 -9 19 -6 7 4 1 -5 -12 -19 -14 -15 -27 -27 -30 -27 -3 0 0
5 7 12 7 7 12 16 12 21 0 17 -30 -22 -33 -44 -2 -14 -12 -24 -26 -26 -15 -2
-20 1 -15 9 4 6 3 8 -3 5 -6 -4 -10 -22 -8 -42 1 -19 -2 -32 -7 -29 -4 3 -6 9
-4 13 3 4 -5 8 -17 8 -12 1 -17 -1 -11 -5 13 -8 14 -42 2 -42 -5 0 -6 -5 -2
-12 4 -7 3 -8 -4 -4 -6 4 -18 -6 -27 -24 -13 -25 -19 -29 -30 -20 -11 10 -13
8 -10 -8 3 -16 -1 -19 -18 -15 -18 4 -19 3 -7 -6 14 -10 7 -16 -14 -12 -5 1
-3 -5 4 -14 7 -8 10 -18 6 -22 -3 -3 -6 -2 -6 4 0 6 -7 14 -16 17 -8 3 -12 2
-9 -4 3 -6 -2 -10 -12 -11 -14 0 -14 -2 5 -9 12 -5 22 -12 22 -14 0 -3 -6 -3
-14 0 -8 3 -17 0 -22 -7 -5 -8 -3 -10 6 -4 9 6 11 4 6 -4 -5 -7 -15 -10 -24
-6 -9 3 -13 3 -9 -1 4 -4 -1 -12 -10 -19 -13 -9 -13 -14 -3 -20 9 -5 11 -4 6
3 -4 7 -2 12 3 12 16 0 13 -20 -4 -26 -8 -4 -12 -11 -8 -17 3 -6 1 -7 -6 -3
-6 4 -8 13 -4 19 4 7 -1 6 -11 -2 -13 -11 -14 -16 -4 -22 10 -7 10 -9 -1 -9
-8 0 -11 -6 -7 -16 4 -10 2 -13 -6 -8 -8 5 -9 2 -5 -9 3 -9 1 -19 -5 -23 -7
-4 -8 -3 -4 4 4 7 2 12 -3 12 -6 0 -11 -5 -11 -11 0 -5 -5 -7 -10 -4 -6 4 -7
11 -4 17 4 7 2 8 -5 4 -12 -8 -3 -27 24 -49 6 -5 2 -6 -9 -3 -14 5 -17 2 -12
-10 5 -14 4 -15 -8 -5 -11 9 -15 8 -20 -5 -9 -24 -8 -27 10 -20 8 3 12 2 9 -4
-3 -6 -16 -10 -28 -10 -20 0 -20 0 -2 -14 18 -13 18 -14 -8 -9 -21 4 -28 2
-27 -8 4 -29 0 -40 -12 -33 -9 5 -8 2 1 -9 8 -10 11 -20 7 -24 -3 -3 -6 -1 -6
5 0 7 -7 12 -16 12 -14 0 -14 -1 0 -16 20 -19 20 -21 1 -21 -8 0 -11 5 -8 11
4 6 -1 5 -10 -3 -9 -7 -15 -16 -12 -20 2 -4 -7 -19 -21 -34 -14 -15 -21 -27
-16 -27 12 0 47 52 44 63 -1 5 2 6 8 2 8 -5 8 -11 1 -19 -6 -7 -7 -17 -3 -21
4 -5 1 -5 -5 -1 -17 9 -17 -6 0 -24 10 -12 9 -12 -5 -1 -15 12 -19 10 -28 -13
-5 -14 -12 -26 -14 -26 -3 0 -3 7 1 16 5 14 3 13 -15 -2 -25 -21 -27 -25 -9
-18 8 3 13 -4 13 -20 0 -15 -5 -22 -13 -19 -7 3 -10 10 -6 17 3 6 2 8 -2 3 -5
-4 -10 -18 -12 -30 -2 -16 -1 -18 6 -8 7 10 9 7 8 -12 -2 -18 -5 -23 -14 -16
-7 7 -14 6 -19 -2 -4 -8 -3 -9 4 -5 7 4 12 3 12 -2 0 -6 -7 -12 -15 -16 -8 -3
-15 -11 -15 -17 0 -8 6 -7 18 2 15 13 16 12 3 -4 -10 -13 -17 -14 -27 -7 -10
9 -11 6 -7 -10 4 -14 -1 -26 -13 -35 -11 -8 -15 -15 -10 -15 5 0 3 -7 -4 -15
-6 -8 -9 -19 -5 -25 3 -5 1 -10 -6 -10 -8 0 -8 -4 1 -15 11 -13 10 -14 -5 -9
-13 5 -16 3 -13 -7 3 -8 11 -13 17 -11 7 1 10 -2 6 -7 -3 -6 -13 -7 -22 -4
-12 5 -14 3 -8 -7 6 -10 4 -12 -8 -7 -9 3 -19 1 -23 -5 -4 -7 -3 -8 4 -4 7 4
12 3 12 -3 0 -6 8 -8 18 -4 14 5 14 3 -3 -10 -17 -13 -18 -17 -5 -33 14 -18
14 -18 -3 -5 -12 10 -21 11 -28 4 -8 -8 -7 -13 2 -18 8 -6 10 -4 4 5 -5 9 -4
11 4 6 14 -9 3 -29 -13 -23 -7 3 -13 -1 -13 -8 0 -8 3 -13 6 -12 3 1 6 -3 6
-8 0 -6 -5 -9 -13 -7 -11 3 -11 -1 -1 -20 l12 -23 -24 20 c-18 15 -20 16 -10
3 7 -10 10 -18 5 -18 -5 0 -2 -5 6 -10 12 -8 12 -10 1 -10 -10 0 -11 -3 -2
-13 11 -14 5 -27 -13 -27 -6 0 -4 5 4 11 12 8 12 10 1 7 -19 -5 -23 -38 -8
-57 10 -12 9 -13 -2 -6 -11 6 -13 4 -8 -9 4 -9 3 -15 -2 -12 -14 9 -31 -40
-18 -53 7 -7 8 -11 0 -11 -6 0 -10 -8 -10 -17 0 -34 -3 -43 -14 -43 -6 0 -7 5
-2 13 12 20 13 41 1 29 -6 -6 -11 -22 -11 -36 1 -14 -3 -23 -8 -20 -5 3 -6 -2
-3 -10 3 -9 9 -14 13 -11 4 2 8 -2 8 -9 0 -8 -7 -12 -15 -9 -12 5 -12 2 -2
-17 11 -20 10 -22 -4 -17 -8 3 -18 1 -22 -5 -4 -7 -3 -8 4 -4 6 3 16 -3 22
-15 10 -17 9 -20 -1 -14 -9 6 -11 2 -6 -14 4 -18 3 -20 -9 -10 -8 6 -17 9 -21
5 -3 -3 -1 -6 5 -6 7 0 12 -4 12 -10 0 -5 -5 -9 -12 -7 -8 1 -12 -20 -11 -72
1 -79 -4 -104 -18 -95 -5 3 -6 -2 -3 -11 5 -13 9 -13 23 -3 11 9 10 6 -3 -9
-10 -13 -23 -20 -29 -16 -6 3 -7 1 -3 -6 4 -6 13 -8 19 -5 7 4 9 4 5 -1 -4 -4
-3 -15 2 -24 7 -14 4 -17 -21 -15 -16 1 -27 -2 -24 -7 3 -4 12 -6 19 -3 8 3
17 0 22 -7 4 -8 3 -10 -4 -5 -7 4 -12 1 -12 -8 0 -8 -8 -20 -17 -25 -10 -6
-13 -11 -6 -11 13 0 12 -18 -1 -39 -6 -9 -5 -12 2 -7 14 8 20 -22 11 -55 -4
-16 -2 -32 4 -39 9 -10 9 -11 -2 -5 -10 6 -13 4 -8 -7 3 -9 1 -20 -5 -26 -6
-6 -6 -12 3 -17 8 -6 10 -4 4 5 -6 9 -4 11 5 5 10 -6 10 -10 -3 -20 -15 -11
-15 -14 0 -35 9 -13 11 -20 5 -16 -6 3 -13 2 -17 -4 -3 -5 -1 -10 6 -10 7 0 9
-3 6 -7 -4 -3 -1 -13 6 -21 10 -13 9 -14 -2 -7 -11 6 -13 4 -8 -7 3 -9 0 -21
-6 -28 -8 -9 -9 -11 -1 -7 15 9 26 -31 12 -40 -7 -3 -8 -1 -4 5 4 7 2 12 -3
12 -16 0 -13 -16 5 -34 14 -15 14 -16 -3 -16 -14 0 -15 -2 -5 -9 15 -9 13 -42
-3 -53 -6 -5 -5 -8 4 -8 11 0 11 -3 0 -17 -10 -11 -10 -14 -1 -9 16 9 16 -6 0
-23 -10 -11 -10 -13 0 -7 14 8 17 -10 2 -19 -5 -3 -10 -11 -10 -17 0 -7 4 -7
13 0 10 8 13 6 13 -8 0 -10 -3 -17 -7 -14 -4 2 -9 -3 -13 -11 -3 -10 1 -15 12
-16 9 0 12 -3 5 -5 -7 -3 -9 -12 -6 -20 3 -7 8 -12 12 -10 9 6 8 -81 -1 -90
-4 -4 -5 3 -3 15 2 12 0 19 -6 16 -5 -4 -7 -10 -4 -15 3 -4 -1 -10 -7 -13 -7
-2 -1 -8 14 -12 24 -6 27 -11 22 -34 -4 -14 -11 -32 -17 -39 -6 -7 -6 -12 -1
-11 21 4 35 -2 29 -11 -4 -6 -10 -8 -15 -5 -5 3 -11 1 -15 -4 -3 -6 4 -8 16
-6 14 3 19 0 16 -9 -3 -8 0 -19 6 -26 9 -9 9 -11 1 -7 -15 9 -27 -20 -12 -29
7 -5 8 -2 3 7 -8 12 -6 12 8 0 18 -14 23 -26 8 -17 -5 3 -12 -2 -16 -12 -13
-29 -14 -41 -2 -39 7 1 11 -6 9 -15 -4 -23 16 -32 35 -16 15 12 15 11 3 -9 -8
-12 -18 -20 -22 -17 -4 3 -5 -2 -2 -11 5 -13 9 -13 23 -3 11 8 10 5 -3 -10
-20 -23 -10 -31 14 -9 8 6 5 0 -8 -14 -26 -30 -28 -39 -7 -39 12 0 13 -5 7
-17 -12 -23 -4 -45 11 -36 7 4 7 1 -1 -9 -10 -13 -10 -18 -1 -24 8 -5 9 -3 4
6 -5 9 -4 11 4 6 9 -6 9 -11 1 -21 -8 -9 -8 -15 0 -20 6 -4 10 -12 9 -18 -3
-24 13 -57 25 -50 6 4 4 -2 -4 -12 -9 -11 -10 -16 -3 -11 7 4 13 2 13 -3 0 -6
-4 -11 -10 -11 -5 0 -10 -4 -10 -10 0 -5 6 -9 12 -7 7 1 12 -6 10 -15 -2 -10
1 -18 7 -18 5 0 8 11 7 25 -2 13 1 22 6 19 5 -3 7 -12 4 -19 -2 -7 1 -18 7
-24 8 -8 7 -11 -6 -11 -21 0 -22 -14 -3 -33 11 -11 12 -17 3 -27 -9 -10 -9
-11 1 -6 8 5 12 0 12 -13 0 -12 5 -21 10 -21 6 0 19 -9 30 -20 20 -20 20 -20
20 2 0 21 0 21 15 2 14 -19 14 -19 15 1 l1 20 9 -20 c5 -11 9 -15 9 -10 1 6
10 11 20 11 11 0 18 -3 16 -6 -2 -4 2 -7 10 -7 8 0 12 4 9 9 -7 11 3 10 27 -2
15 -9 19 -7 20 7 0 16 1 16 9 -2 5 -11 9 -15 9 -10 1 6 10 11 20 11 11 0 18
-3 16 -6 -2 -4 2 -7 10 -7 8 0 12 5 8 10 -3 5 4 6 17 2 15 -5 26 -2 32 6 8 11
9 10 4 -3 -3 -12 0 -18 10 -18 8 0 13 3 11 8 -3 4 19 7 48 7 42 0 52 -3 48
-15 -3 -10 -2 -11 4 -3 9 12 95 25 88 13 -2 -4 2 -7 10 -7 8 0 12 4 9 9 -9 14
9 9 30 -10 20 -16 20 -16 7 1 -13 16 -12 17 13 8 22 -9 26 -8 26 7 1 13 4 11
15 -8 9 -16 14 -20 15 -9 0 20 37 18 52 -2 8 -11 9 -11 4 4 -6 20 4 22 23 4 9
-7 12 -8 7 0 -4 7 1 9 14 6 11 -3 17 -10 13 -16 -3 -6 -1 -7 5 -3 7 4 12 15
12 24 1 16 1 16 11 0 5 -10 15 -18 20 -18 6 0 8 3 6 8 -3 4 19 7 48 7 30 0 52
-4 50 -10 -1 -5 0 -7 2 -2 7 12 58 8 73 -6 12 -10 12 -9 1 6 -15 19 -9 22 20
7 15 -9 19 -7 20 7 0 16 1 16 9 -2 5 -11 9 -15 9 -10 1 6 10 11 20 11 11 0 18
-3 16 -6 -2 -4 2 -7 10 -7 8 0 12 4 9 9 -7 11 3 10 27 -2 15 -9 19 -7 20 7 0
16 1 16 9 -2 5 -11 9 -15 9 -10 1 6 10 11 20 11 11 0 18 -3 16 -6 -2 -4 2 -7
10 -7 8 0 12 5 8 10 -3 5 4 6 17 2 15 -5 26 -2 32 6 8 11 9 10 4 -3 -3 -12 0
-18 10 -18 8 0 13 3 11 8 -3 4 19 7 48 7 42 0 52 -3 48 -15 -3 -10 -2 -11 4
-3 9 12 95 25 88 13 -2 -4 2 -7 10 -7 8 0 12 4 9 9 -9 14 9 9 30 -10 20 -16
20 -16 7 1 -13 16 -12 17 13 8 22 -9 26 -8 26 7 1 13 4 11 15 -8 9 -16 14 -20
15 -9 0 20 37 18 52 -2 8 -11 9 -11 4 4 -6 20 4 22 23 5 9 -8 12 -9 7 -1 -4 7
1 9 14 6 11 -3 17 -10 13 -16 -3 -6 -1 -7 5 -3 7 4 12 15 12 24 1 16 1 16 11
0 5 -10 15 -18 20 -18 6 0 8 3 6 8 -3 4 19 7 48 7 30 0 52 -4 50 -10 -1 -5 0
-7 2 -2 7 12 58 8 73 -5 12 -11 12 -10 1 5 -15 19 -9 22 20 7 15 -9 19 -7 20
7 0 16 1 16 9 -2 5 -11 9 -15 9 -10 1 6 10 11 20 11 11 0 18 -3 16 -6 -2 -4 2
-7 10 -7 8 0 12 4 9 9 -7 11 3 10 27 -2 15 -9 19 -7 20 7 0 16 1 16 9 -2 5
-11 9 -15 9 -10 1 6 10 11 20 11 11 0 18 -3 16 -6 -2 -4 2 -7 10 -7 8 0 12 5
8 10 -3 5 4 6 17 2 15 -5 26 -2 32 6 8 11 9 10 4 -3 -3 -12 0 -18 10 -18 8 0
13 3 11 8 -3 4 19 7 48 7 42 0 52 -3 48 -15 -3 -10 -2 -11 4 -3 9 13 102 14
119 1 6 -4 11 -2 11 7 0 8 -5 11 -10 8 -6 -3 -7 -1 -3 5 4 6 13 9 21 6 8 -4
12 -11 8 -18 -4 -7 -1 -7 9 1 8 7 17 10 20 7 3 -2 8 2 12 11 4 11 2 14 -7 9
-6 -4 -8 -3 -4 1 12 14 40 15 56 2 12 -9 13 -9 7 1 -7 12 -5 13 32 16 23 2 42
15 42 29 0 6 -6 2 -14 -9 -14 -19 -15 -18 -13 3 0 12 5 19 9 17 4 -3 8 1 8 8
0 9 3 9 8 2 9 -14 43 -14 35 -1 -4 6 0 8 10 4 12 -4 14 0 11 19 -4 22 -2 25
17 19 16 -5 19 -4 14 6 -6 9 -3 11 8 6 10 -3 17 -2 17 2 0 5 -6 11 -12 14 -10
3 -8 10 5 23 14 15 19 16 26 5 6 -9 11 -10 15 -2 4 6 2 11 -4 11 -6 0 -8 5 -5
10 4 6 11 7 17 4 7 -4 8 -2 4 5 -4 6 -11 9 -15 7 -4 -3 -8 1 -8 8 0 8 6 12 14
9 9 -4 11 0 6 13 -4 12 -3 15 6 9 10 -6 12 1 8 29 -3 20 -1 33 4 30 5 -3 7 -9
4 -14 -3 -5 -1 -11 4 -15 6 -3 8 6 5 21 -3 16 -1 23 6 19 6 -3 7 0 4 9 -3 9
-11 16 -18 16 -6 0 -4 5 4 10 13 9 13 11 0 20 -13 9 -7 14 12 11 9 -1 -1 29
-16 48 -9 12 -8 13 5 9 13 -5 16 -2 12 13 -3 10 -9 16 -14 13 -5 -3 -9 0 -9 5
0 6 4 11 8 11 5 0 9 7 9 15 0 8 -4 12 -9 9 -5 -3 -7 6 -4 20 3 14 1 28 -4 31
-5 3 -7 -3 -5 -14 3 -14 -1 -18 -12 -14 -12 5 -12 7 -1 14 7 5 9 9 4 9 -5 0
-3 7 4 15 14 17 1 21 -18 5 -6 -6 -10 -7 -7 -4 3 4 0 13 -7 21 -8 11 -7 12 5
8 8 -4 18 -1 23 6 4 7 3 10 -3 6 -10 -6 -44 25 -57 53 -4 8 2 3 14 -12 12 -16
27 -28 33 -28 6 0 3 6 -8 13 -11 9 -15 19 -10 27 5 9 4 11 -3 6 -7 -4 -12 -2
-12 3 0 6 -7 11 -16 11 -8 0 -12 4 -9 10 3 6 3 10 -2 11 -40 4 -72 27 -73 54
0 6 5 3 10 -5 5 -8 10 -10 10 -4 0 18 -13 24 -27 13 -10 -9 -13 -8 -13 5 0 9
-5 16 -11 16 -6 0 -8 -7 -5 -16 5 -13 3 -14 -6 -6 -7 6 -17 11 -23 12 -5 1
-12 4 -15 7 -3 2 0 4 5 3 27 -6 27 2 0 14 -17 7 -33 9 -36 4 -3 -5 -13 -2 -22
6 -17 17 -29 21 -24 8 1 -4 -2 -7 -8 -7 -5 0 -9 3 -8 7 2 5 -2 8 -8 8 -5 0 -8
4 -5 8 3 5 -1 9 -9 9 -11 0 -12 -4 -4 -13 7 -8 6 -14 -2 -20 -8 -5 -9 -3 -4 6
6 9 4 12 -6 8 -8 -3 -23 -9 -34 -12 -15 -5 -15 -4 3 5 12 7 22 16 22 21 0 11
-17 11 -24 0 -6 -10 -52 -10 -61 0 -3 3 8 4 24 3 17 -1 28 1 26 5 -3 5 -13 7
-23 6 -9 -2 -20 2 -24 8 -5 8 -8 7 -8 -2 0 -7 -5 -10 -12 -6 -7 4 -8 3 -4 -4
10 -17 -6 -15 -31 3 -16 11 -24 12 -29 4 -4 -7 -3 -9 3 -6 5 3 10 0 10 -8 0
-11 -4 -12 -14 -4 -7 6 -13 8 -13 4 0 -4 -6 -2 -13 4 -8 6 -17 8 -20 4 -4 -3
-7 -1 -7 6 0 7 -5 9 -10 6 -6 -4 -8 -10 -6 -14 3 -3 -4 -7 -14 -7 -12 0 -16 4
-10 11 6 7 2 11 -10 11 -10 0 -17 -3 -14 -7 2 -4 -5 -9 -17 -12 -16 -4 -18 -3
-8 9 7 9 8 14 1 14 -6 0 -14 -4 -17 -10 -11 -17 -27 -11 -21 8 6 16 5 16 -7 0
-8 -10 -17 -15 -20 -11 -4 3 -2 12 4 20 7 8 8 13 1 13 -13 0 -24 -29 -16 -43
3 -7 -4 -1 -16 13 l-21 25 6 -25 c7 -24 7 -24 -8 -5 -8 11 -13 23 -11 27 3 4
-2 5 -11 1 -13 -4 -14 -7 -3 -14 9 -6 6 -8 -9 -6 -17 1 -20 5 -12 19 8 15 7
16 -17 3 -15 -7 -31 -19 -35 -27 -4 -7 -10 -10 -13 -7 -3 3 3 15 14 26 16 18
17 22 4 27 -22 9 -31 7 -16 -3 10 -6 10 -10 -2 -20 -11 -9 -16 -9 -22 0 -4 8
-3 9 4 5 18 -11 14 0 -5 15 -9 8 -14 9 -10 3 13 -22 -55 -14 -75 9 -10 12 -18
18 -17 12 4 -32 -2 -38 -17 -19 -8 10 -12 13 -8 5 5 -10 3 -12 -6 -6 -7 4 -16
2 -22 -6 -8 -11 -9 -11 -5 3 8 22 -17 56 -28 38 -6 -9 -4 -11 6 -5 8 5 10 4 6
0 -15 -17 -36 -13 -32 6 2 11 0 17 -6 14 -5 -4 -9 -14 -10 -23 0 -14 -2 -13
-9 3 -6 14 -9 15 -10 5 0 -12 -3 -11 -11 3 -7 12 -17 16 -30 12 -11 -4 -19 -2
-19 4 0 6 5 11 11 11 5 0 7 5 3 11 -5 8 -8 8 -14 0 -8 -14 -40 -4 -41 13 0 6
-4 2 -9 -9 -8 -18 -9 -17 -9 6 -1 15 -8 30 -17 33 -14 5 -15 4 -4 -9 11 -13
10 -14 -4 -9 -9 3 -16 12 -16 20 0 8 -4 14 -10 14 -5 0 -8 -6 -6 -12 1 -7 1
-10 -1 -5 -3 4 -8 5 -13 2 -5 -3 -7 6 -5 20 1 14 0 23 -3 20 -3 -2 -12 1 -20
8 -11 8 -14 8 -9 0 4 -6 3 -14 -3 -18 -5 -3 -10 1 -10 10 0 9 -5 13 -11 9 -8
-4 -9 1 -4 17 l7 24 -19 -22 c-27 -30 -38 -29 -18 1 12 18 13 26 4 32 -7 4 -9
3 -5 -4 3 -6 2 -13 -4 -17 -5 -3 -10 -1 -10 5 0 6 -6 8 -12 4 -10 -6 -10 -4 0
7 6 7 12 18 12 24 0 5 -5 3 -10 -5 -8 -12 -10 -12 -10 -1 0 10 -3 11 -14 2
-12 -10 -13 -8 -9 8 3 13 1 21 -6 21 -7 0 -9 -4 -6 -10 10 -16 -1 -11 -16 7
-10 11 -10 14 -1 9 6 -4 12 -2 12 3 0 6 -4 11 -9 11 -5 0 -11 10 -13 23 -2 17
-8 21 -28 19 -20 -3 -22 -2 -12 11 10 12 8 14 -11 12 -15 -2 -24 2 -24 11 0
10 4 11 13 3 8 -7 14 -6 20 2 4 8 3 9 -4 5 -7 -4 -12 -2 -12 3 0 12 -26 15
-33 4 -2 -5 -2 -2 -1 5 6 22 -7 43 -20 33 -8 -7 -12 -4 -14 10 -1 10 -3 28 -4
38 -2 14 -6 17 -14 10 -9 -7 -15 -3 -20 13 -4 13 -7 29 -5 36 1 7 -5 15 -14
18 -8 3 -15 10 -15 16 0 5 4 7 8 4 5 -3 9 2 9 10 0 10 -4 11 -11 4 -15 -15
-30 -12 -17 4 9 11 9 16 0 22 -8 5 -9 3 -4 -6 5 -8 4 -11 -3 -7 -11 8 -4 48
10 58 6 3 2 9 -7 12 -9 4 -14 3 -11 -1 3 -5 -1 -9 -8 -9 -8 0 -12 7 -9 14 3 8
-3 21 -13 29 -15 12 -11 11 16 -2 20 -9 30 -11 23 -4 -6 7 -10 18 -9 24 2 6 1
8 -1 4 -11 -20 -22 -5 -12 15 11 19 10 20 -2 10 -12 -10 -17 -8 -28 9 -10 15
-10 18 0 12 9 -5 10 -2 6 9 -3 9 -1 19 5 23 7 5 8 2 3 -7 -7 -12 -5 -12 6 -1
12 11 12 14 -1 22 -8 5 -18 6 -24 3 -5 -3 -6 -1 -2 5 4 7 14 12 22 12 8 0 14
4 14 10 0 5 -3 9 -7 9 -5 -1 -14 -1 -22 0 -12 1 -11 4 2 14 19 14 13 61 -7 51
-6 -3 0 4 14 16 14 12 20 19 14 16 -7 -3 -15 1 -18 10 -4 11 -2 15 8 11 21 -8
14 35 -9 56 -20 18 -20 18 1 8 16 -8 25 -7 33 3 8 9 7 13 -4 13 -8 0 -11 -5
-8 -11 3 -6 2 -8 -2 -3 -10 8 -15 47 -6 44 3 -1 17 7 31 17 24 18 19 18 -27
-1 -7 -3 -13 0 -13 6 0 6 5 10 12 8 7 -1 12 3 13 10 0 6 4 15 9 20 5 5 6 3 2
-4 -5 -9 -2 -11 9 -7 14 6 14 8 -2 20 -13 9 -14 13 -4 14 11 0 11 3 0 17 -12
14 -12 16 0 8 11 -6 13 -3 8 14 -5 19 -3 20 10 9 14 -12 15 -11 5 9 -8 14 -9
24 -2 28 6 4 7 11 4 17 -4 7 -2 8 5 4 9 -6 9 -11 1 -21 -7 -9 -6 -16 7 -26 16
-13 17 -12 4 3 -11 15 -11 19 4 24 13 6 14 9 3 16 -11 8 -11 10 0 15 10 4 9 8
-5 19 -17 12 -16 13 7 9 22 -4 23 -3 8 8 -15 12 -15 14 5 27 20 12 21 12 8 -3
-7 -10 -9 -17 -5 -17 5 0 15 9 22 21 8 12 9 18 3 15 -5 -4 -9 2 -8 14 1 12 7
18 14 16 15 -6 28 13 25 37 -2 10 8 24 26 34 18 10 30 26 31 40 3 44 4 52 10
51 3 -1 17 4 31 10 14 6 21 11 15 12 -5 0 -3 4 5 10 9 6 19 5 29 -3 9 -7 7 -1
-4 17 l-19 29 23 -13 c13 -6 21 -8 18 -3 -5 9 18 35 26 27 2 -2 10 3 18 13 8
9 9 14 2 10 -8 -5 -11 -1 -10 12 1 16 4 18 15 9 11 -10 13 -8 10 8 -2 16 3 19
29 18 26 0 30 2 22 13 -9 10 -5 13 17 14 16 1 32 1 36 1 3 -1 9 5 12 14 4 12
2 12 -14 4 -13 -7 -21 -7 -26 2 -4 6 -3 8 4 4 6 -3 13 -2 17 4 3 5 15 10 26
10 13 0 18 -4 13 -12 -4 -7 -3 -8 5 -4 9 6 9 11 -1 24 -11 13 -10 14 8 4 18
-9 24 -8 35 5 12 14 12 16 -1 8 -12 -6 -13 -6 -2 6 11 12 14 12 23 -1 9 -12
10 -11 6 6 -5 22 6 26 30 11 12 -8 36 25 28 37 -3 3 0 2 7 -4 8 -6 16 -4 25 8
8 9 12 11 8 5 -3 -7 -2 -13 2 -13 5 0 15 6 22 13 12 10 13 9 7 -7 -5 -16 -4
-17 8 -6 9 6 14 17 13 23 -1 7 6 11 17 9 12 -2 16 1 10 9 -4 8 -3 10 5 5 15
-10 3 -29 -15 -22 -22 8 -17 -2 7 -15 12 -6 19 -7 16 -2 -11 17 23 46 58 48
26 2 35 -1 36 -14 0 -12 2 -12 9 4 5 11 9 14 9 6 1 -11 4 -11 18 0 9 8 14 9
10 3 -3 -6 0 -11 8 -11 8 0 12 4 10 8 -3 4 2 10 10 13 9 3 18 -1 22 -10 5 -13
8 -13 25 3 18 16 19 16 12 -3 -7 -17 -6 -17 9 -5 11 9 17 9 17 2 0 -12 27 -10
48 2 7 5 12 4 12 -2 0 -6 5 -11 11 -11 5 0 8 4 5 9 -3 5 1 11 9 15 8 3 14 0
12 -6 -1 -6 4 -13 12 -16 8 -3 11 0 7 7 -4 6 -2 11 3 11 6 0 11 -4 11 -9 0 -9
43 -7 59 4 6 3 11 1 11 -6 0 -8 4 -8 15 1 8 7 15 8 15 3 0 -10 56 -11 66 0 4
4 13 2 20 -4 9 -7 19 -7 33 1 12 6 21 7 21 3 0 -5 13 -8 29 -8 16 -1 27 3 25
7 -3 4 2 8 11 8 9 0 14 -4 11 -9 -3 -4 4 -8 15 -7 11 0 24 8 29 16 8 13 10 12
10 -2 0 -21 11 -23 28 -6 9 9 12 9 12 0 0 -7 5 -12 11 -12 5 0 8 4 5 9 -3 5 1
11 9 15 8 3 14 0 12 -6 -1 -6 4 -13 12 -16 8 -3 11 0 7 7 -4 6 -2 11 3 11 6 0
11 -4 11 -9 0 -9 55 -5 71 4 5 4 9 3 9 -2 0 -4 13 -8 29 -8 16 -1 27 3 25 7
-3 4 2 8 11 8 9 0 14 -4 11 -9 -3 -4 4 -8 15 -7 11 0 24 8 29 16 8 13 10 13
10 -1 0 -13 9 -16 44 -14 24 2 49 6 55 9 6 4 11 4 11 -1 0 -4 13 -8 29 -8 16
-1 27 3 25 7 -3 4 0 8 5 8 6 0 11 -5 11 -11 0 -7 9 -9 23 -6 21 6 21 5 -3 -15
l-25 -21 25 8 c24 7 24 7 5 -8 -11 -8 -24 -13 -30 -9 -5 3 -4 -1 3 -10 10 -12
10 -18 1 -23 -6 -4 -15 -2 -19 5 -5 9 -9 9 -14 1 -4 -6 -3 -11 2 -11 6 0 12
-7 16 -15 5 -13 2 -14 -17 -4 -20 11 -21 11 -8 -4 12 -15 11 -17 -5 -18 -11
-1 -23 -1 -27 0 -5 1 -6 -3 -2 -9 3 -6 10 -8 14 -6 4 3 12 1 19 -3 8 -4 5 -11
-9 -20 -12 -7 -18 -8 -14 -2 3 6 1 11 -4 11 -11 0 -14 -11 -8 -27 1 -5 6 -6
12 -5 5 2 6 0 2 -5 -5 -4 -13 -9 -18 -9 -5 -1 -14 -2 -20 -3 -5 0 -7 -6 -3
-13 5 -8 2 -9 -9 -5 -10 4 -16 2 -14 -6 1 -7 -4 -11 -11 -9 -8 1 -11 -2 -8 -7
4 -5 -4 -17 -16 -27 -19 -14 -20 -15 -4 -10 19 7 19 6 3 -12 -9 -10 -14 -22
-10 -25 3 -4 -1 -7 -10 -7 -9 0 -18 -4 -21 -8 -8 -13 27 -11 44 2 13 10 13 9
1 -7 -7 -9 -19 -17 -25 -16 -23 3 -33 -1 -34 -13 -3 -34 -10 -53 -20 -54 -25
-3 -27 -5 -12 -14 12 -8 11 -10 -6 -10 -30 0 -53 -28 -33 -41 12 -7 11 -9 -2
-9 -9 0 -22 -7 -29 -15 -7 -8 -16 -12 -21 -9 -5 3 -6 -2 -3 -10 5 -13 -2 -16
-41 -16 -30 0 -44 -4 -40 -11 4 -5 -10 -3 -29 5 -20 8 -34 11 -31 7 2 -5 -2
-12 -11 -15 -8 -3 -13 -2 -10 3 3 5 -1 12 -10 15 -8 3 -13 2 -10 -3 3 -5 -1
-12 -10 -15 -8 -3 -13 -2 -10 3 3 5 -1 12 -10 15 -8 3 -13 2 -10 -3 3 -5 -3
-11 -14 -14 -11 -3 -20 -1 -20 4 0 5 5 9 10 9 6 0 10 5 10 12 0 6 -8 4 -19 -6
-20 -18 -65 -31 -56 -15 4 5 -8 9 -25 9 -18 0 -29 -4 -25 -10 3 -6 -1 -7 -10
-4 -13 5 -13 9 -3 23 8 11 5 10 -10 -3 -12 -11 -22 -16 -22 -12 0 4 -10 2 -21
-5 -17 -9 -20 -8 -17 3 3 7 14 12 26 12 12 -1 20 2 17 6 -7 12 -60 4 -57 -8 1
-7 -5 -12 -13 -12 -8 0 -13 6 -11 13 1 6 1 9 -1 5 -8 -13 -25 -9 -40 10 -13
14 -13 13 0 -8 13 -24 13 -26 -3 -26 -10 0 -17 3 -15 6 1 3 -4 12 -13 20 -14
13 -15 12 -9 -3 3 -9 2 -19 -3 -22 -6 -4 -10 1 -10 9 0 21 -17 29 -24 10 -4
-10 -2 -13 7 -8 6 4 9 3 4 -1 -4 -5 -16 -9 -27 -10 -15 -1 -17 1 -8 12 6 7 8
16 4 20 -3 3 -6 1 -6 -6 0 -14 -47 -12 -67 2 -15 11 -36 -1 -27 -15 5 -7 1 -9
-9 -5 -12 4 -17 1 -17 -11 0 -10 -3 -13 -8 -7 -11 16 -45 19 -37 3 3 -7 0 -5
-7 4 -13 15 -15 15 -28 -5 -12 -20 -11 -21 2 -9 13 10 17 10 22 -3 3 -9 2 -13
-4 -10 -6 3 -16 3 -22 -2 -7 -4 -17 -8 -23 -8 -5 -1 -9 -7 -7 -14 1 -7 -2 -10
-8 -6 -6 4 -4 16 6 33 11 19 12 22 2 10 -8 -10 -18 -15 -21 -12 -3 3 -4 -7 -2
-22 2 -26 2 -27 -11 -9 -8 10 -17 16 -20 12 -4 -4 -2 -12 4 -20 11 -13 5 -15
-45 -19 -7 -1 -10 -5 -7 -10 3 -5 11 -5 17 -2 7 4 1 -5 -12 -19 -25 -28 -42
-38 -22 -13 9 11 9 16 -1 22 -7 4 -10 4 -6 -1 4 -4 3 -14 -3 -22 -6 -7 -9 -22
-6 -33 3 -11 1 -18 -4 -14 -8 5 -13 -9 -10 -29 0 -4 -2 -6 -6 -6 -19 3 -33 -2
-33 -11 0 -5 8 -7 18 -4 10 4 13 2 7 -3 -19 -15 -38 -62 -32 -77 4 -10 1 -16
-8 -16 -8 0 -15 -5 -15 -11 0 -6 9 -8 23 -4 22 6 22 6 1 -7 -12 -7 -20 -21
-19 -30 2 -10 -1 -20 -6 -24 -5 -3 -9 -11 -9 -17 0 -9 2 -9 8 1 6 8 14 0 26
-25 18 -37 18 -38 -1 -20 -16 14 -20 14 -20 2 0 -8 3 -13 6 -11 3 2 15 -5 26
-16 11 -11 16 -19 10 -18 -25 5 -28 -1 -7 -16 23 -16 23 -17 5 -36 -18 -21
-18 -21 5 -9 22 12 23 11 12 -9 -6 -11 -16 -17 -22 -14 -7 4 -8 3 -4 -5 4 -6
11 -9 16 -6 5 3 14 -3 19 -14 6 -10 18 -22 27 -25 11 -4 7 4 -9 20 -15 15 -25
29 -23 32 7 6 55 -51 56 -65 0 -7 5 -13 11 -13 5 0 8 -4 5 -9 -3 -5 6 -12 20
-15 25 -7 26 -8 8 -22 -11 -9 -13 -13 -7 -9 7 3 21 1 30 -4 13 -7 14 -10 4
-11 -8 0 -11 -3 -8 -6 4 -4 14 -1 24 7 15 12 16 12 10 -3 -4 -12 -2 -15 8 -11
8 3 12 10 8 16 -3 5 -1 7 5 4 5 -4 8 -16 5 -26 -3 -10 0 -22 6 -25 6 -4 9 -1
5 7 -3 8 0 18 7 23 8 4 10 3 5 -4 -7 -11 6 -17 28 -13 5 1 4 -5 -3 -13 -10
-12 -9 -14 10 -9 17 5 20 3 14 -7 -5 -8 -4 -11 3 -6 6 4 9 13 5 21 -3 8 0 15
7 15 6 0 9 -4 6 -9 -3 -5 3 -19 13 -32 16 -20 21 -21 35 -10 13 11 19 11 31 1
8 -7 21 -10 29 -7 7 3 19 0 25 -6 14 -14 14 -30 -1 -21 -7 5 -8 3 -3 -6 6 -10
10 -10 19 3 9 12 16 13 31 4 18 -9 18 -9 7 5 -11 14 -10 16 7 11 11 -3 18 -10
17 -16 -2 -7 -1 -9 1 -4 3 4 10 4 15 1 7 -4 8 -2 4 4 -9 15 -1 15 27 0 21 -11
21 -10 7 7 -13 16 -9 16 25 -4 l40 -23 -25 28 -25 27 25 -16 c28 -19 44 -22
34 -6 -3 6 9 3 27 -7 27 -13 31 -14 22 -2 -11 13 -9 14 21 4 22 -7 30 -13 23
-18 -9 -6 -9 -8 0 -8 23 0 24 20 2 28 -18 7 -19 10 -6 15 9 3 18 0 21 -8 3 -8
11 -13 18 -11 7 1 10 1 6 -1 -5 -3 -8 -10 -8 -16 0 -5 3 -7 7 -4 3 4 12 2 20
-5 10 -8 12 -8 8 3 -3 8 0 23 8 32 12 17 13 17 13 -2 0 -11 -5 -17 -10 -14 -5
3 -6 1 -3 -5 8 -12 25 -11 46 2 9 6 12 5 7 -2 -3 -6 -1 -14 5 -18 7 -4 9 -3 5
4 -3 6 -2 13 4 17 5 3 10 0 10 -7 0 -9 3 -9 10 2 5 8 10 10 10 4 0 -7 7 -15
16 -18 11 -4 15 -2 11 7 -3 8 1 14 9 14 7 0 11 -4 9 -8 -3 -4 3 -10 13 -15 26
-11 36 -11 51 0 12 9 13 7 8 -7 -4 -11 -3 -16 3 -12 6 3 10 1 10 -6 0 -7 7 -4
15 7 14 18 14 18 10 -4 -2 -12 0 -20 6 -17 5 4 9 1 9 -6 0 -7 6 -5 14 6 11 15
15 16 22 4 5 -8 20 -23 34 -34 l25 -20 -15 20 c-8 11 -19 23 -25 27 -6 5 -5 8
4 8 7 0 21 -11 31 -23 15 -18 26 -23 49 -19 19 2 31 0 31 -7 0 -6 9 -11 20
-11 11 0 19 -6 17 -12 -1 -8 7 -12 22 -10 14 2 21 0 17 -7 -4 -7 -1 -8 8 -5
11 4 16 0 16 -14 0 -18 16 -31 48 -38 6 -1 10 2 7 7 -4 5 1 6 9 3 19 -7 21
-24 4 -24 -6 0 -8 -3 -5 -6 4 -4 14 -1 22 6 13 11 16 11 13 -1 -2 -9 4 -13 17
-11 16 2 17 1 5 -7 -8 -5 -17 -8 -21 -5 -4 2 -11 -1 -15 -7 -4 -8 -3 -9 4 -5
6 4 19 -2 28 -12 10 -12 24 -17 35 -15 14 4 18 1 13 -10 -4 -12 -1 -15 15 -12
11 2 20 1 19 -3 -4 -14 14 -52 23 -52 6 0 7 -4 4 -10 -3 -5 -1 -10 6 -10 8 0
8 -5 -2 -17 -10 -14 -8 -13 10 2 l24 20 -8 -24 c-5 -18 -4 -22 6 -16 9 6 11 4
6 -8 -8 -21 21 -46 33 -28 5 9 10 10 14 2 4 -6 3 -11 -3 -11 -5 0 -9 -9 -8
-20 1 -12 8 -20 19 -20 21 0 23 -11 6 -29 -10 -11 -10 -13 0 -7 12 7 13 4 16
-33 0 -11 4 -23 8 -27 4 -3 6 2 4 13 -3 11 0 26 5 34 5 9 7 -2 4 -29 -3 -31
-1 -42 8 -39 7 2 11 10 9 16 -1 7 3 9 9 6 8 -5 8 -10 0 -18 -6 -6 -11 -18 -11
-26 0 -12 2 -12 13 2 10 15 12 12 13 -24 1 -25 -2 -36 -7 -27 -6 9 -9 9 -9 1
0 -7 6 -16 13 -20 6 -4 19 -17 27 -28 14 -19 14 -20 -6 -3 -11 10 -27 18 -34
18 -8 0 5 -14 28 -31 23 -17 42 -33 42 -36 0 -3 -7 0 -15 7 -13 11 -18 11 -28
0 -7 -7 -7 -10 -1 -7 6 3 18 -3 27 -14 9 -10 12 -19 7 -19 -6 0 -10 -16 -10
-36 0 -19 4 -33 8 -30 13 8 7 -31 -7 -48 -12 -14 -11 -16 3 -10 12 5 15 2 10
-10 -3 -9 -11 -13 -18 -9 -7 4 -7 2 1 -8 9 -11 9 -19 2 -26 -8 -8 -7 -13 2
-18 8 -5 10 -4 5 3 -4 7 -2 12 3 12 14 0 14 -17 1 -25 -5 -3 -6 -13 -3 -22 4
-10 2 -14 -5 -9 -6 3 -14 1 -18 -5 -4 -8 -3 -9 4 -5 7 4 12 2 12 -4 0 -6 4 -8
10 -5 6 3 7 -1 4 -9 -3 -9 -13 -16 -22 -16 -8 0 -12 -3 -8 -7 4 -5 13 -8 19
-8 5 0 12 -6 15 -12 2 -7 -1 -13 -8 -13 -6 0 -9 4 -6 8 2 4 -4 8 -15 8 -19 0
-18 -1 3 -19 13 -10 18 -16 12 -13 -7 3 -15 -1 -18 -10 -3 -8 -11 -12 -17 -8
-8 4 -8 0 1 -15 6 -12 16 -19 21 -15 6 3 5 -3 -3 -15 -7 -12 -17 -21 -22 -21
-4 0 -2 8 5 18 11 14 11 15 -1 5 -17 -15 -23 -46 -7 -36 6 4 8 0 4 -9 -3 -9
-1 -20 5 -26 6 -6 6 -12 -3 -17 -7 -5 -10 -4 -6 2 4 6 0 16 -8 23 -12 10 -13
7 -5 -21 8 -26 7 -35 -5 -42 -9 -4 -12 -13 -9 -19 4 -7 2 -8 -5 -4 -8 6 -9 12
-2 20 6 7 7 17 3 21 -4 5 -1 5 6 0 11 -6 12 -3 3 14 -15 27 -19 27 -16 -4 2
-15 -3 -29 -13 -35 -10 -5 -12 -10 -7 -10 19 0 15 -40 -3 -41 -15 0 -14 -1 1
-8 18 -7 18 -8 1 -21 -15 -12 -16 -12 -9 -1 5 9 4 12 -3 7 -5 -3 -13 0 -16 6
-3 7 -3 2 0 -12 7 -28 7 -27 5 -55 -1 -15 -3 -17 -10 -7 -14 22 -50 -6 -48
-37 2 -20 -3 -27 -21 -29 -22 -3 -23 -4 -5 -18 13 -10 14 -13 2 -9 -9 3 -22
-2 -30 -12 -13 -16 -12 -17 3 -5 11 9 18 10 23 2 4 -6 1 -9 -7 -8 -7 2 -12 -2
-11 -8 1 -6 -9 -10 -25 -9 -23 3 -24 1 -10 -8 14 -10 14 -12 -7 -29 -13 -10
-28 -18 -34 -18 -10 0 -15 -13 -13 -31 1 -4 -8 -4 -20 -1 -12 3 -19 1 -15 -4
3 -5 -2 -18 -10 -29 -15 -19 -15 -19 -8 5 7 24 7 24 -8 5 -8 -11 -13 -23 -11
-27 2 -4 -1 -10 -7 -14 -8 -4 -9 -3 -5 4 9 15 -14 15 -34 1 -13 -9 -12 -10 3
-5 9 3 17 1 17 -3 0 -13 -29 -21 -35 -10 -4 5 -11 7 -16 3 -6 -3 -5 -12 3 -22
11 -14 7 -13 -17 2 l-30 19 19 -21 c18 -20 18 -22 1 -28 -9 -4 -20 -2 -24 4
-4 7 -12 8 -21 2 -10 -7 -11 -10 -2 -10 6 0 12 -5 12 -10 0 -7 -6 -7 -20 0
-16 9 -20 8 -20 -5 0 -9 5 -13 10 -10 6 3 10 1 10 -5 0 -7 -8 -9 -19 -5 -11 3
-22 1 -26 -5 -5 -8 -10 -8 -20 0 -15 12 -30 -3 -20 -20 4 -6 -1 -7 -11 -3 -13
5 -15 3 -9 -8 4 -8 5 -11 0 -7 -4 4 -15 2 -24 -4 -9 -7 -5 0 8 15 14 15 21 30
18 34 -4 3 -7 1 -7 -6 0 -7 -5 -9 -12 -5 -7 5 -8 3 -3 -6 6 -10 4 -12 -9 -7
-11 5 -15 3 -10 -5 5 -8 2 -9 -10 -5 -11 4 -19 1 -23 -10 -6 -15 -7 -14 -14 3
-7 16 -8 17 -8 2 -1 -15 -5 -16 -27 -8 -17 7 -23 7 -19 0 7 -12 -23 -9 -45 5
-13 8 -13 7 -1 -8 7 -9 17 -15 21 -12 4 3 13 -2 20 -10 9 -10 9 -15 1 -15 -6
0 -11 5 -11 11 0 8 -6 7 -17 -2 -11 -10 -14 -10 -9 -1 7 11 -12 18 -38 13 -5
-1 -6 6 -2 16 5 15 4 15 -9 -2 -19 -24 -73 -28 -100 -6 -17 14 -18 14 -8 1 10
-13 8 -18 -7 -28 -16 -10 -18 -9 -14 2 4 10 0 13 -13 12 -10 -2 -24 2 -32 8
-12 9 -13 8 -6 -3 6 -11 4 -13 -8 -8 -9 3 -19 1 -23 -5 -5 -7 -2 -8 6 -3 8 5
11 4 6 -3 -4 -6 -14 -8 -23 -5 -12 5 -14 3 -8 -7 5 -9 4 -11 -3 -6 -9 5 -9 13
-1 29 9 18 5 16 -21 -8 -18 -16 -30 -25 -26 -18 8 15 -27 35 -47 27 -8 -3 -18
-1 -22 5 -3 6 -12 11 -18 11 -7 0 -4 -5 6 -11 9 -5 17 -15 17 -21 0 -9 -3 -9
-12 0 -9 9 -14 7 -25 -6 -12 -16 -13 -16 -7 0 4 13 1 16 -15 13 -12 -2 -27 -7
-34 -11 -8 -5 -8 -2 2 9 17 22 7 22 -26 -1 -21 -13 -25 -14 -18 -2 13 21 15
41 4 34 -5 -3 -6 -10 -3 -16 5 -7 -2 -9 -20 -6 -14 3 -29 1 -33 -5 -4 -6 -1
-7 7 -2 8 5 11 4 6 -3 -4 -6 -14 -8 -23 -5 -12 5 -14 3 -8 -7 5 -9 4 -11 -3
-6 -9 5 -9 13 -1 29 9 18 5 16 -21 -8 -18 -16 -30 -25 -26 -18 9 16 -28 35
-50 26 -14 -5 -16 -3 -10 13 5 14 4 16 -4 8 -6 -6 -8 -18 -4 -28 5 -13 9 -14
21 -5 11 9 17 9 26 -1 9 -10 9 -11 -1 -6 -7 4 -19 3 -27 -4 -9 -7 -15 -8 -20
-1 -3 6 -16 16 -28 23 -20 10 -21 10 -8 -6 12 -14 12 -16 -3 -10 -9 3 -16 10
-16 16 0 5 -7 2 -16 -6 -21 -22 -27 -20 -13 5 11 21 11 21 -14 3 -14 -11 -22
-23 -19 -28 3 -5 0 -6 -7 -2 -9 6 -9 11 0 22 7 9 8 14 1 14 -6 0 -14 -4 -17
-10 -3 -5 -17 -10 -31 -10 -14 0 -23 4 -20 8 3 5 -2 9 -10 9 -9 0 -13 -6 -10
-14 4 -9 1 -11 -5 -7 -6 4 -16 0 -21 -7 -8 -11 -9 -11 -5 2 5 14 -3 16 -55 12
-37 -3 -58 -2 -55 4 3 5 -1 10 -9 10 -9 0 -13 -6 -10 -14 4 -9 1 -11 -5 -7 -6
4 -16 0 -21 -7 -8 -11 -9 -10 -4 3 4 14 0 16 -24 13 -16 -2 -34 -6 -39 -9 -5
-4 -13 -1 -17 5 -4 7 -3 9 4 5 6 -3 13 -2 16 2 3 5 -17 8 -45 7 -39 -2 -49 1
-45 12 3 8 1 11 -5 8 -5 -4 -7 -16 -4 -28 5 -19 4 -20 -7 -7 -7 8 -19 16 -27
18 -12 3 -12 0 -1 -12 19 -24 4 -19 -21 7 -12 12 -18 16 -14 8 6 -11 4 -13 -8
-8 -9 3 -19 1 -23 -5 -5 -7 -2 -8 6 -3 8 5 11 4 6 -3 -4 -6 -14 -8 -23 -5 -12
5 -14 3 -8 -7 5 -9 4 -11 -3 -6 -9 5 -9 13 -1 29 9 18 5 16 -21 -8 -18 -16
-30 -25 -26 -18 13 23 -50 40 -70 20 -11 -11 -42 -8 -46 4 -2 5 -11 7 -21 4
-9 -4 -14 -12 -10 -18 3 -6 1 -7 -6 -3 -6 4 -20 2 -29 -5 -13 -10 -12 -8 2 9
11 12 16 25 13 29 -4 3 -7 2 -7 -4 0 -15 -48 -34 -55 -22 -4 5 -1 8 6 7 6 -2
14 4 16 12 3 9 1 11 -4 5 -12 -15 -67 -12 -89 5 -17 13 -18 13 -7 0 10 -13 8
-18 -7 -28 -15 -9 -18 -9 -14 1 3 8 -4 13 -20 13 -14 0 -22 -5 -19 -11 2 -8
-7 -10 -26 -7 -17 2 -29 7 -26 11 2 4 -3 8 -11 8 -9 0 -13 -6 -10 -14 4 -9 1
-11 -5 -7 -6 4 -16 0 -21 -7 -8 -11 -9 -11 -5 2 5 14 -3 16 -55 12 -37 -3 -58
-2 -55 4 3 5 -1 10 -9 10 -9 0 -13 -6 -10 -14 4 -9 1 -11 -5 -7 -6 4 -16 0
-21 -7 -8 -11 -9 -10 -4 3 4 14 0 16 -24 13 -16 -2 -35 -7 -42 -11 -8 -5 -7
-1 2 11 13 17 10 16 -25 -4 -38 -22 -39 -22 -21 -2 11 12 16 24 13 28 -4 3 -7
2 -7 -4 0 -18 -48 -34 -62 -20 -8 7 -20 13 -27 15 -12 3 -12 0 -1 -13 7 -8 10
-18 6 -22 -3 -3 -6 -1 -6 6 0 9 -6 11 -18 6 -31 -12 -53 -14 -47 -4 4 5 11 6
17 3 7 -4 8 -2 4 4 -5 8 -2 10 8 6 9 -3 16 -1 16 6 0 6 -5 8 -12 4 -8 -5 -9
-1 -5 12 7 18 6 18 -9 -1 -8 -11 -19 -19 -23 -18 -4 1 -8 -9 -9 -23 -1 -16 3
-24 14 -24 10 0 14 -5 10 -16 -4 -9 -2 -13 5 -8 8 5 10 -3 7 -24 -2 -17 -2
-31 1 -30 31 3 43 -4 38 -21 -4 -15 0 -18 20 -16 17 2 21 -1 14 -8 -12 -12
-15 -31 -3 -24 4 3 13 -1 20 -9 7 -8 9 -14 3 -14 -5 0 -11 -7 -15 -15 -4 -13
-2 -13 14 -5 25 14 37 13 22 -2 -7 -7 -12 -17 -12 -23 0 -5 5 -3 10 5 9 13 10
13 10 0 0 -13 1 -13 10 0 5 8 10 10 10 4 0 -6 -3 -14 -7 -18 -10 -10 -11 -46
-1 -40 5 4 7 12 5 18 -3 7 1 13 8 13 7 0 11 -6 8 -12 -2 -7 3 -19 11 -28 8 -8
12 -17 9 -21 -4 -3 1 -6 10 -6 10 0 17 -8 17 -20 0 -11 5 -20 11 -20 5 0 7 -6
3 -12 -5 -8 0 -7 11 2 11 9 16 10 11 3 -6 -12 5 -18 26 -14 5 0 7 -2 7 -7 -1
-4 0 -9 1 -12 7 -19 7 -39 -1 -34 -5 3 -9 1 -9 -4 0 -6 7 -13 16 -16 8 -3 12
-2 9 4 -3 6 -1 10 6 10 6 0 9 -8 6 -20 -3 -10 -1 -18 3 -17 5 1 16 -7 25 -18
9 -11 13 -13 9 -5 -7 13 -6 13 10 1 12 -10 14 -16 5 -21 -8 -6 -8 -9 0 -14 6
-4 8 -12 5 -18 -4 -7 -2 -8 5 -4 6 4 9 12 6 17 -4 5 -1 9 4 9 6 0 11 -7 11
-15 0 -8 5 -15 11 -15 5 0 7 5 3 12 -4 7 -3 8 4 4 6 -4 9 -13 6 -21 -4 -8 -11
-12 -17 -8 -6 3 -7 1 -3 -5 5 -8 13 -9 25 -2 16 8 18 5 14 -18 -3 -25 -3 -26
6 -4 11 25 24 31 15 7 -6 -16 29 -55 49 -55 6 0 2 -7 -9 -15 -18 -14 -17 -15
8 -5 28 9 48 -2 27 -16 -8 -5 -9 -3 -4 6 5 9 4 11 -4 6 -16 -10 -7 -21 35 -41
28 -13 35 -21 31 -37 -5 -19 -5 -19 13 -3 14 12 20 13 26 4 4 -8 3 -10 -4 -5
-8 5 -11 -1 -10 -18 1 -13 5 -24 8 -24 21 2 30 -4 24 -14 -4 -7 -4 -10 1 -6
13 12 34 -12 28 -30 -4 -10 2 -7 14 7 15 18 20 20 20 8 0 -9 -5 -13 -10 -10
-6 3 -7 1 -3 -5 5 -9 13 -9 26 -2 13 7 21 7 25 0 6 -10 5 -11 -14 -14 -5 0
-13 -5 -18 -9 -4 -5 -3 -8 2 -7 22 5 36 -1 29 -12 -5 -7 -3 -8 7 -2 25 15 36
12 35 -10 -1 -11 -8 -20 -15 -18 -7 1 -9 -2 -6 -9 5 -8 10 -8 18 0 14 14 30
14 21 0 -4 -7 1 -7 16 1 12 7 20 7 16 2 -3 -6 -3 -12 1 -15 5 -2 3 -2 -4 -1
-7 2 -15 -1 -18 -7 -4 -5 -3 -9 2 -8 22 4 43 -2 38 -11 -9 -14 9 -12 23 2 10
10 12 8 10 -11 -2 -14 3 -26 12 -28 12 -4 12 -3 2 5 -11 8 -11 10 1 15 12 5
15 -1 11 -26 -2 -18 0 -27 4 -20 10 15 52 13 52 -3 0 -7 -9 -10 -22 -8 -21 4
-21 4 2 -7 14 -7 28 -11 33 -11 4 1 7 -3 7 -8 0 -6 5 -10 11 -10 8 0 8 5 -1
15 -7 8 -17 12 -23 8 -6 -3 -7 -1 -3 5 8 14 33 5 40 -14 3 -8 12 -14 21 -14 8
0 15 -4 15 -9 0 -5 -10 -7 -22 -5 -13 2 -16 1 -8 -2 8 -4 18 -12 22 -18 6 -8
8 -8 8 0 0 7 7 15 16 18 15 6 15 4 3 -11 -8 -9 -9 -14 -2 -10 6 4 14 3 18 -3
4 -6 12 -7 18 -3 7 4 5 -2 -3 -12 -14 -17 -14 -18 8 -6 22 12 24 10 26 -19 2
-16 7 -16 41 -5 11 4 16 3 10 -2 -12 -9 -14 -32 -3 -35 3 -2 10 1 15 6 5 5 2
6 -6 1 -9 -5 -12 -4 -7 3 4 6 14 8 23 5 12 -5 14 -3 8 7 -5 9 -4 11 4 6 6 -4
9 -12 6 -17 -4 -5 1 -9 9 -9 9 0 16 -5 16 -10 0 -7 -6 -7 -20 0 -14 7 -20 7
-20 0 0 -5 7 -10 15 -10 8 0 15 -6 15 -12 0 -9 3 -9 8 -2 10 15 59 13 59 -3 0
-9 -4 -10 -12 -3 -9 7 -17 5 -26 -7 -13 -16 -12 -17 3 -5 11 9 18 10 23 2 5
-8 11 -7 23 2 12 10 14 10 8 1 -4 -8 -2 -13 6 -13 9 0 9 -3 -2 -10 -9 -6 -10
-10 -3 -10 6 0 15 5 18 10 5 8 11 8 19 1 7 -6 17 -7 21 -3 5 4 5 1 1 -6 -6 -9
-11 -10 -20 -3 -9 8 -13 7 -13 -3 0 -13 26 -14 46 -2 5 3 12 -1 15 -10 3 -8
10 -12 16 -9 5 3 7 0 4 -8 -3 -8 0 -18 7 -23 8 -4 10 -3 5 4 -5 8 0 12 13 12
11 0 23 -5 27 -12 5 -7 3 -8 -7 -3 -12 8 -12 6 0 -8 15 -18 26 -23 16 -7 -3 6
4 9 19 8 13 -1 22 -6 20 -10 -3 -5 -10 -6 -15 -3 -5 4 -9 2 -9 -4 0 -5 5 -13
10 -16 6 -3 10 -2 10 3 0 6 7 12 14 15 10 4 13 1 10 -8 -4 -10 0 -12 15 -8 20
5 26 -5 22 -30 -1 -5 3 -6 9 -2 6 3 8 10 6 14 -3 4 0 13 5 21 7 11 8 7 5 -12
-3 -15 0 -30 5 -33 5 -4 9 4 9 17 1 22 1 22 13 3 12 -21 20 -24 63 -27 15 -2
23 -7 20 -15 -3 -7 0 -15 6 -19 7 -4 8 -3 4 4 -4 7 -1 12 9 12 11 0 15 -5 12
-15 -4 -8 -2 -17 4 -20 5 -4 8 -1 7 7 -2 9 7 12 32 10 19 -1 43 -3 53 -3 13 0
16 -5 12 -20 -6 -19 -5 -20 15 -9 13 7 26 8 33 2 7 -5 22 -8 34 -6 12 2 23 -3
27 -12 4 -10 2 -13 -7 -7 -20 13 -34 12 -34 -3 0 -10 4 -11 12 -4 9 7 16 6 24
-4 12 -14 40 -14 63 0 7 5 8 3 3 -6 -6 -10 0 -12 24 -8 18 3 35 0 38 -5 4 -6
1 -7 -8 -2 -11 6 -12 5 -2 -5 11 -12 16 -11 29 6 8 10 12 13 8 5 -9 -19 13
-30 53 -26 28 3 32 1 22 -11 -10 -12 -9 -13 5 -8 10 4 16 1 16 -7 0 -9 3 -10
8 -3 4 6 17 13 29 16 17 4 20 2 16 -11 -4 -14 -3 -14 10 2 15 18 28 23 26 10
-1 -5 -1 -15 0 -23 1 -13 3 -13 10 0 6 8 7 18 4 24 -3 5 -1 6 6 2 7 -4 9 -17
6 -29 -5 -17 -4 -19 4 -7 5 8 13 11 17 7 4 -4 16 1 27 10 11 10 18 14 15 8 -3
-5 0 -16 8 -23 8 -7 14 -9 14 -5 0 4 8 -1 17 -12 l16 -20 -7 20 -6 20 16 -20
c16 -20 16 -20 12 1 -3 13 0 21 8 21 7 0 11 -4 8 -8 -2 -4 0 -10 6 -14 5 -3
10 -1 10 6 0 7 7 4 16 -7 8 -10 13 -14 10 -8 -3 7 1 15 10 18 8 3 12 2 9 -4
-3 -6 -3 -10 2 -11 44 -5 65 -5 69 3 3 4 12 1 20 -7 12 -11 20 -12 35 -5 10 6
19 7 19 3 0 -4 7 2 15 13 14 18 14 18 8 -3 -3 -14 -1 -23 6 -23 7 0 9 5 6 10
-3 6 0 10 7 11 68 6 77 4 66 -8 -11 -14 -32 -18 -24 -5 3 5 -1 9 -8 9 -7 0
-13 -6 -13 -13 0 -12 28 -12 61 2 13 5 17 4 12 -4 -3 -6 -1 -14 5 -18 8 -5 9
-3 4 6 -6 10 -4 12 9 7 10 -4 24 1 36 13 13 13 20 15 24 7 3 -9 8 -8 15 3 6 8
11 10 11 4 0 -5 -5 -15 -12 -22 -9 -9 -9 -12 -1 -12 7 0 15 5 18 10 4 7 13 7
26 0 11 -6 24 -8 29 -5 5 3 13 -3 19 -12 6 -10 11 -13 11 -8 0 6 -7 22 -17 35
-9 14 -10 19 -3 13 18 -16 44 -17 34 -1 -4 7 -3 8 5 4 9 -6 9 -11 0 -22 -13
-15 -2 -19 19 -5 8 4 12 12 10 17 -1 5 8 9 22 9 14 0 24 -5 23 -11 -1 -6 11
-10 27 -10 16 0 27 3 24 7 -2 5 -11 6 -19 2 -8 -3 -15 0 -15 5 0 11 31 9 52
-4 8 -5 9 -2 4 11 -5 15 -4 16 9 5 8 -7 12 -17 8 -23 -3 -6 -1 -7 6 -3 6 4 9
12 6 17 -4 5 -1 9 4 9 6 0 11 -4 11 -10 0 -5 5 -10 11 -10 5 0 7 6 3 13 -5 7
0 6 11 -3 10 -8 16 -10 12 -4 -4 7 0 14 8 18 8 3 17 0 21 -6 5 -7 2 -8 -7 -3
-8 5 -10 4 -6 0 11 -13 38 -15 30 -2 -4 7 0 8 11 4 14 -6 17 -3 12 8 -3 9 -2
13 4 10 6 -3 10 -14 11 -23 0 -12 3 -11 9 6 5 12 12 22 14 22 3 0 3 -7 0 -15
-5 -11 -2 -13 12 -8 12 4 15 3 10 -6 -6 -9 -3 -9 13 1 12 7 21 17 21 22 0 4
-6 3 -14 -3 -11 -9 -16 -9 -22 0 -4 7 -3 9 4 5 6 -3 13 -2 17 3 3 6 13 7 22 4
10 -4 14 -2 10 4 -3 5 0 10 7 10 7 0 13 -6 13 -13 0 -7 -5 -12 -11 -11 -5 1
-11 -7 -13 -18 -2 -16 -1 -16 5 -4 4 9 15 15 24 13 10 -1 21 2 24 8 4 7 9 6
14 -1 5 -9 10 -7 20 4 11 13 10 15 -4 9 -9 -3 -16 -1 -16 5 0 6 6 10 13 9 6
-2 11 3 9 10 -1 8 2 11 8 7 6 -3 8 -10 5 -15 -8 -14 24 -20 37 -7 7 7 31 13
53 14 25 2 35 0 26 -6 -9 -6 -10 -11 -2 -15 11 -7 15 5 12 32 -1 7 2 12 6 11
21 -4 34 2 27 12 -5 8 -2 9 12 1 15 -8 24 -7 38 6 11 9 16 12 13 5 -4 -6 -3
-14 3 -18 11 -7 41 7 66 32 17 17 18 17 11 1 -4 -11 -2 -18 6 -18 19 0 40 17
34 27 -3 5 10 7 30 5 23 -3 38 0 44 9 5 8 9 9 9 3 0 -6 7 -11 15 -11 11 0 12
4 4 13 -7 8 -6 14 2 20 7 4 9 3 6 -2 -3 -6 4 -16 16 -24 21 -12 21 -12 7 5
-13 16 -13 18 0 13 8 -3 28 6 45 21 16 14 24 19 17 10 -10 -14 -10 -18 3 -23
9 -3 13 -2 10 4 -3 6 -1 10 5 10 6 0 8 4 5 10 -3 6 1 7 9 4 9 -3 13 -11 9 -17
-3 -5 -1 -7 5 -4 5 4 8 16 5 26 -3 10 1 22 8 27 9 5 11 2 6 -9 -8 -22 2 -22
20 1 8 9 11 11 7 3 -4 -9 -2 -12 7 -9 8 3 13 12 11 19 -1 9 2 8 11 -3 10 -13
17 -14 25 -6 8 8 16 7 29 -3 16 -13 17 -12 4 4 -7 9 -11 18 -7 18 3 1 9 2 14
3 4 1 13 5 20 9 6 5 16 6 21 3 5 -4 7 4 5 16 -2 13 -2 17 2 11 3 -7 10 -13 15
-13 6 0 7 5 4 10 -3 6 1 10 10 10 9 0 13 -5 10 -10 -3 -5 -1 -10 4 -10 15 0
14 13 -1 29 -11 10 -9 11 6 5 13 -5 17 -4 12 4 -3 6 -1 14 5 18 7 4 9 3 6 -3
-4 -6 2 -13 13 -16 11 -3 18 0 17 5 -1 6 4 13 12 16 9 3 11 0 6 -8 -6 -9 -4
-11 4 -6 7 5 10 14 8 20 -3 7 -1 19 5 27 8 11 9 11 4 -3 -3 -10 -1 -20 4 -23
6 -4 10 1 10 9 0 10 6 13 15 10 8 -4 12 -10 9 -15 -3 -5 2 -6 11 -2 12 4 13 8
5 13 -10 6 -10 12 0 26 10 17 11 17 6 1 -5 -15 -2 -16 14 -7 11 6 20 13 20 16
0 3 -5 2 -12 -2 -6 -4 -8 -3 -4 4 4 7 17 8 35 2 27 -7 29 -6 26 16 -2 20 0 22
12 13 11 -9 12 -9 8 4 -4 8 -1 18 6 23 8 4 10 3 5 -4 -4 -7 -1 -12 9 -12 11 0
15 5 11 16 -3 8 -2 13 3 9 5 -3 12 1 15 7 3 7 3 2 0 -11 -4 -16 -3 -21 5 -17
6 4 11 14 11 22 0 8 9 14 21 14 11 0 18 4 15 9 -7 11 22 23 35 15 5 -3 9 0 9
6 0 6 5 8 11 4 8 -4 8 -1 1 13 -9 15 -8 20 4 20 7 0 14 -7 15 -16 1 -9 5 -5 9
9 4 14 8 19 9 13 1 -7 5 -13 11 -13 5 0 7 7 3 15 -3 9 -2 15 3 13 13 -4 54 39
46 48 -4 4 -2 4 5 1 6 -4 19 1 29 10 16 16 16 16 10 -7 -5 -17 -4 -21 2 -11 6
8 15 10 22 6 9 -6 11 -4 4 6 -13 21 -14 38 -2 46 7 3 8 1 4 -5 -4 -7 -2 -12 4
-12 6 0 8 -5 4 -12 -4 -7 -3 -8 5 -4 6 4 9 11 6 16 -5 9 33 26 48 22 5 -1 5 2
2 8 -4 6 -14 9 -22 6 -8 -3 -11 -1 -8 4 4 6 12 10 18 9 27 -3 38 2 31 14 -5 8
-2 7 9 -2 15 -12 17 -12 12 2 -4 8 -1 18 6 23 7 4 10 3 5 -4 -3 -6 -1 -14 6
-18 7 -4 10 -4 6 1 -4 4 -2 17 4 29 7 11 11 24 10 28 -1 4 5 5 14 1 9 -3 14 0
12 8 -2 10 7 14 29 14 17 0 29 3 27 7 -2 4 1 10 7 13 5 4 8 13 5 20 -3 8 2 12
12 11 15 -3 55 45 57 66 0 3 3 10 7 14 4 3 6 -3 3 -14 -3 -15 0 -19 11 -15 8
3 12 8 10 11 -3 3 2 11 12 19 10 9 11 12 2 7 -8 -4 -11 -3 -7 1 15 17 39 14
32 -3 -5 -14 -4 -15 7 -4 11 11 10 16 -6 27 -18 13 -17 14 10 12 20 -1 29 3
29 13 0 8 8 14 18 14 15 -2 16 1 5 14 -11 14 -10 15 6 9 17 -7 17 -6 5 10 -9
11 -10 14 -1 9 7 -4 12 -2 12 7 0 8 9 22 20 32 11 10 17 22 14 26 -3 5 2 6 11
3 16 -7 45 12 45 29 0 6 -6 3 -13 -8 -11 -14 -16 -15 -22 -5 -5 8 -4 11 2 7 6
-4 14 0 17 8 3 8 11 14 18 13 7 -2 13 2 13 7 3 21 18 45 28 45 5 0 2 -9 -7
-19 -17 -19 -17 -19 1 -17 10 2 19 8 19 14 1 7 2 17 3 23 0 6 8 9 15 6 11 -4
13 -1 9 10 -4 10 -2 14 5 9 15 -9 23 7 12 24 -10 16 5 40 26 40 8 0 11 -7 8
-18 -5 -14 -4 -14 6 2 10 14 10 20 0 26 -8 5 -7 9 5 14 9 3 22 3 27 -1 6 -3 8
-1 4 5 -3 6 4 18 16 28 18 12 19 15 4 10 -14 -5 -17 -2 -12 10 3 8 6 18 6 20
0 2 7 4 16 4 11 0 15 6 11 20 -3 11 0 23 5 27 7 3 8 1 4 -5 -4 -7 -2 -12 4
-12 6 0 8 -6 4 -13 -4 -6 -3 -9 1 -5 14 13 15 59 2 52 -7 -4 -8 -3 -4 2 5 5
14 9 20 9 7 0 11 8 11 17 -1 14 2 15 17 8 12 -7 20 -7 24 0 4 6 1 9 -5 8 -7
-2 -14 5 -15 15 -3 15 -1 16 11 6 12 -10 13 -9 7 7 -6 16 -4 17 9 7 15 -13 28
-8 28 11 0 6 -4 5 -9 -3 -7 -11 -10 -11 -17 0 -4 7 -3 14 4 17 7 2 10 8 6 13
-3 5 0 8 7 7 6 -2 14 3 17 11 3 9 0 11 -8 6 -9 -6 -11 -4 -6 4 5 7 14 10 22 7
8 -3 14 -1 14 3 0 5 -6 12 -12 14 -10 4 -10 6 0 6 6 1 12 7 12 15 0 8 9 21 20
29 11 8 17 17 13 20 -3 4 -1 7 7 7 10 0 10 4 -1 17 -8 9 -9 14 -2 10 7 -4 14
1 18 14 4 11 13 18 20 15 9 -3 11 2 8 15 -3 12 0 19 8 19 12 0 12 2 0 9 -10 7
-8 12 10 24 12 9 27 13 33 10 6 -4 2 4 -9 17 -11 13 -14 20 -7 16 9 -6 12 -3
10 10 -2 10 2 19 9 19 17 0 29 15 12 16 -8 0 -4 4 8 9 16 7 21 14 16 26 -5 13
-3 15 8 9 8 -5 5 2 -6 14 -11 12 -15 22 -10 21 22 -5 35 1 35 15 0 9 6 12 18
9 15 -5 15 -4 -1 6 -14 9 -16 15 -6 26 6 7 15 11 20 8 5 -3 6 3 2 12 -4 11 -8
13 -11 6 -2 -7 -8 -12 -14 -12 -6 0 -5 6 2 15 11 14 15 14 33 -2 14 -12 18
-13 11 -3 -11 19 -13 60 -2 54 11 -7 10 23 -3 49 -8 19 -8 20 3 7 7 -8 19 -16
27 -18 12 -3 12 -1 1 13 -20 24 -20 37 3 60 19 20 19 20 2 -15 -10 -19 -14
-32 -10 -28 5 4 15 2 24 -5 14 -11 14 -10 2 6 -9 11 -11 21 -5 25 8 6 11 26 4
35 -7 8 -7 38 0 42 5 3 7 14 5 25 -2 12 0 18 6 15 5 -4 9 -1 9 4 0 6 5 11 12
11 6 0 4 -8 -6 -19 -15 -16 -15 -19 -2 -24 10 -4 13 -1 9 9 -4 10 0 13 13 8
16 -5 16 -4 4 5 -8 6 -11 11 -6 11 5 0 3 7 -4 15 -7 9 -10 19 -6 22 4 4 10 2
15 -5 4 -6 7 8 7 33 1 24 -3 42 -8 39 -15 -9 -8 3 9 17 14 12 16 12 8 0 -6
-10 -4 -12 4 -7 9 6 8 13 -6 29 l-18 20 30 -18 c17 -10 24 -12 18 -5 -7 8 -13
20 -13 28 0 8 5 10 13 6 9 -5 9 -4 0 6 -9 9 -9 18 -1 33 7 15 7 22 -3 28 -11
7 -10 9 4 9 10 0 15 5 12 10 -4 6 -12 7 -18 4 -9 -5 -9 -3 0 6 10 11 15 11 30
-1 14 -11 14 -9 -2 10 l-20 24 25 -7 c14 -4 20 -4 14 1 -16 12 -24 52 -12 60
6 3 8 1 4 -5 -3 -6 -3 -13 2 -16 4 -2 8 6 8 19 0 13 -4 21 -9 18 -5 -3 -3 4 4
15 7 12 18 18 24 14 12 -7 -15 29 -30 40 -6 5 -5 8 3 8 7 0 10 4 7 10 -3 5 0
7 8 4 8 -3 14 2 14 11 0 11 -6 14 -21 9 -15 -4 -17 -3 -7 4 8 6 10 15 6 22 -5
9 -4 11 3 6 7 -4 12 -2 12 3 0 6 5 11 11 11 8 0 8 -5 -1 -15 -9 -10 -9 -15 -1
-15 6 0 11 3 12 8 0 4 2 17 5 30 2 12 -1 22 -7 22 -5 0 -7 -4 -4 -10 3 -5 2
-10 -3 -10 -5 0 -9 13 -9 30 0 25 2 27 12 13 10 -14 12 -13 10 6 -1 13 -8 27
-16 33 -11 8 -11 9 4 4 20 -6 22 5 5 23 -11 10 -9 11 6 5 16 -6 17 -4 7 14 -9
17 -8 23 6 31 15 8 16 12 5 23 -11 11 -13 11 -10 -1 2 -7 -4 -16 -12 -18 -9
-3 -11 -1 -5 4 13 11 15 56 3 64 -5 3 -2 9 7 12 10 5 14 3 9 -5 -4 -7 -3 -8 4
-4 6 4 8 14 5 23 -4 10 -2 14 5 9 6 -3 13 -2 16 3 7 10 -13 9 -29 -1 -6 -3
-10 4 -10 17 0 18 3 21 13 13 9 -8 11 -7 6 7 -6 14 -4 16 6 10 9 -5 11 -4 6 4
-4 6 -10 9 -14 7 -4 -2 -13 2 -20 10 -15 17 -12 17 24 3 l28 -10 -19 21 c-11
12 -15 21 -10 20 6 -2 17 -2 25 -1 12 1 12 3 2 10 -8 4 -13 11 -13 15 1 3 -2
5 -6 4 -5 -2 -7 -6 -6 -10 2 -5 -1 -8 -6 -8 -6 0 -9 9 -8 20 1 12 8 20 20 20
16 0 17 2 4 14 -17 18 -16 62 2 58 7 -1 10 2 6 8 -3 5 0 10 7 10 10 0 10 2 -1
9 -8 5 -20 7 -28 4 -16 -6 -18 13 -1 23 7 4 8 3 4 -4 -5 -8 -1 -10 10 -5 14 5
13 8 -6 18 -13 7 -18 14 -12 16 7 2 13 25 15 50 2 25 7 51 12 58 4 8 0 20 -10
29 -10 10 -15 12 -11 5 3 -6 2 -14 -3 -17 -10 -7 -9 19 1 30 4 3 4 17 2 31 -3
17 -1 22 7 18 7 -5 6 1 -2 16 -7 13 -12 30 -10 38 1 7 -2 10 -7 7 -5 -3 -7 6
-4 19 2 14 9 25 15 25 6 0 1 7 -12 16 -16 12 -20 19 -12 27 13 13 15 41 3 33
-4 -2 -8 4 -8 14 0 14 3 16 13 8 10 -8 12 -7 7 6 -6 15 -18 20 -37 17 -5 -1
-6 3 -2 9 4 6 16 8 28 5 12 -2 16 -2 9 1 -6 3 -10 10 -7 14 3 5 -3 7 -14 5
-20 -4 -21 8 -6 48 5 12 2 17 -11 18 -11 0 -14 3 -7 5 7 3 9 12 6 20 -5 13 -7
13 -14 2 -6 -9 -9 -9 -9 -1 0 22 19 23 33 2 8 -11 18 -16 21 -11 3 6 -1 13
-10 16 -8 3 -12 11 -9 16 4 6 3 10 -2 9 -20 -3 -34 2 -28 11 4 6 11 8 16 5 5
-3 6 1 3 9 -3 9 -9 14 -13 11 -4 -2 -8 2 -8 9 0 8 7 12 16 9 12 -3 12 -2 -1 7
-10 6 -18 16 -18 21 0 6 -8 18 -18 27 -11 10 -12 13 -2 7 8 -5 20 -15 26 -22
8 -9 11 -4 10 22 -1 19 -5 35 -10 35 -4 0 -6 -7 -2 -15 8 -23 -7 -18 -24 8
-17 26 -22 49 -9 41 5 -3 6 -10 3 -16 -5 -7 -2 -8 6 -3 9 6 11 4 5 -5 -5 -9
-4 -11 4 -6 13 8 1 29 -29 53 -13 10 -13 11 0 10 8 -1 15 3 15 8 0 6 -6 9 -12
9 -7 -1 -10 2 -7 7 3 5 2 15 -3 22 -4 6 -8 17 -9 22 0 6 -2 16 -2 24 -2 11 -5
11 -19 0 -14 -12 -14 -10 1 14 14 21 15 27 5 27 -11 0 -11 2 1 10 10 6 11 10
3 10 -7 0 -13 5 -13 11 0 5 4 8 8 5 4 -2 8 6 8 18 0 12 -6 23 -13 23 -9 0 -10
-4 -2 -14 7 -8 8 -13 1 -13 -14 0 -23 28 -12 35 6 4 10 12 10 18 0 9 -2 9 -8
1 -5 -9 -11 -8 -20 2 -7 8 -8 14 -2 14 5 0 10 5 10 11 0 5 -4 8 -9 5 -12 -8
-20 29 -10 45 11 18 0 32 -16 19 -10 -8 -15 -8 -21 1 -4 7 -3 10 2 7 5 -3 16
1 24 10 13 14 12 15 -3 9 -9 -3 -17 -2 -17 4 0 6 -4 8 -9 4 -6 -3 -8 6 -5 21
3 14 1 23 -4 20 -5 -3 -9 11 -9 32 0 23 -4 36 -11 35 -7 -2 -12 7 -12 18 0 12
-10 30 -22 40 -11 11 -16 19 -10 19 6 0 14 -4 17 -10 3 -5 12 -10 18 -9 9 0 8
2 -1 6 -6 2 -10 8 -8 12 3 4 -1 8 -9 9 -8 1 -21 3 -29 4 -13 1 -14 33 -2 46
10 9 -16 43 -29 38 -10 -3 -12 0 -8 11 5 12 3 14 -7 8 -9 -5 -11 -4 -6 3 4 7
2 12 -5 12 -7 0 -9 3 -6 6 4 4 19 -1 34 -10 l28 -17 -28 23 c-19 17 -24 27
-17 34 7 7 6 11 -4 11 -8 0 -13 -4 -10 -8 2 -4 1 -10 -4 -13 -4 -2 -9 7 -10
20 -1 18 2 23 11 17 6 -4 1 7 -13 24 -18 22 -28 28 -38 20 -9 -7 -11 -6 -6 7
3 9 10 16 15 16 5 0 9 4 9 9 0 5 -9 7 -20 4 -17 -5 -20 0 -20 26 0 17 -4 31
-10 31 -5 0 -7 -8 -4 -17 5 -14 4 -15 -4 -4 -5 7 -7 23 -5 35 4 17 3 18 -6 6
-9 -12 -11 -10 -11 13 0 15 -5 27 -11 27 -7 0 -9 9 -6 21 4 16 3 18 -9 8 -11
-9 -14 -9 -14 0 0 7 -5 9 -12 5 -9 -5 -9 -2 1 9 9 11 10 17 2 17 -6 0 -11 5
-11 11 0 5 6 7 13 3 8 -5 7 -2 -2 9 -10 13 -17 15 -27 6 -8 -6 -15 -9 -15 -5
-1 3 -2 9 -3 14 -1 4 -5 12 -9 19 -4 7 -6 23 -3 37 4 22 1 24 -25 21 -27 -4
-28 -3 -14 11 19 20 19 22 -2 20 -10 0 -18 5 -18 11 0 7 -17 24 -38 38 -37 26
-43 49 -9 39 9 -3 6 1 -8 9 -14 9 -29 13 -35 9 -5 -3 -4 2 3 11 10 12 11 20 2
34 -9 16 -10 15 -5 -7 5 -23 5 -23 -8 -8 -8 10 -18 14 -23 10 -4 -4 -2 1 5 10
11 15 10 19 -13 29 -20 10 -23 15 -15 26 10 11 8 12 -6 7 -13 -5 -16 -4 -11 4
4 7 1 12 -9 12 -9 0 -13 -4 -10 -10 3 -5 1 -10 -4 -10 -15 0 -14 13 2 29 10
11 9 13 -5 8 -10 -3 -20 -1 -24 5 -4 7 -3 8 4 4 7 -4 12 -2 12 3 0 6 -7 11
-17 11 -9 0 -13 3 -10 7 10 9 -31 35 -44 27 -7 -4 -7 2 1 16 11 20 10 22 -4
17 -10 -4 -15 -3 -11 3 3 6 2 10 -3 10 -5 0 -15 11 -22 25 -7 14 -15 23 -18
20 -3 -2 1 -11 8 -20 7 -9 10 -18 8 -21 -3 -3 -12 9 -19 25 -13 29 -22 36 -43
32 -5 -1 -3 5 4 14 11 13 10 14 -5 8 -15 -5 -17 -3 -12 11 5 13 3 16 -11 12
-12 -4 -19 -1 -19 8 0 9 4 13 9 10 4 -3 8 0 8 5 0 15 -30 14 -30 -1 0 -7 -5
-5 -11 5 -6 9 -15 15 -20 11 -5 -3 -9 -2 -8 3 4 21 -2 24 -18 12 -17 -13 -17
-13 0 7 18 22 12 41 -9 23 -9 -8 -11 -5 -7 10 3 13 1 21 -6 21 -7 0 -9 5 -5
12 4 7 3 8 -5 4 -7 -5 -9 -13 -4 -20 4 -7 0 -4 -9 7 -9 10 -16 23 -14 30 1 7
1 9 -1 5 -3 -5 -11 -8 -19 -8 -13 0 -19 13 -15 33 1 5 -3 6 -8 3 -5 -4 -12 -2
-16 4 -3 5 -1 10 6 10 7 0 10 3 7 6 -4 3 -15 1 -25 -5 -15 -8 -20 -7 -21 5 -1
7 -3 20 -4 28 -1 8 -7 12 -15 9 -19 -8 -45 5 -37 18 4 8 9 7 15 -2 6 -10 9
-10 9 -2 0 16 -17 26 -25 14 -7 -13 -44 -10 -42 4 1 5 -4 9 -11 7 -8 -1 -11 2
-7 8 5 8 13 6 25 -5 12 -11 20 -13 25 -5 4 6 1 9 -7 8 -7 -2 -12 4 -10 12 2 8
0 12 -4 8 -4 -4 -14 -2 -22 5 -10 8 -13 8 -9 1 4 -7 0 -14 -8 -17 -9 -4 -12
-1 -9 7 3 8 0 17 -5 21 -6 3 -9 10 -6 15 3 5 0 12 -6 16 -8 4 -9 3 -5 -4 4 -7
1 -12 -9 -12 -9 0 -13 4 -10 10 3 6 -1 7 -10 4 -9 -4 -15 -3 -14 2 4 21 -2 44
-11 44 -5 0 -7 -7 -3 -16 5 -14 3 -15 -16 -4 -12 6 -28 8 -35 3 -6 -4 -3 0 8
10 19 17 18 18 -15 12 -25 -4 -30 -3 -19 5 11 7 11 10 2 10 -7 0 -10 5 -7 10
3 6 1 10 -4 10 -6 0 -11 -6 -11 -12 0 -10 -3 -9 -9 1 -7 11 -9 11 -13 0 -3 -9
-6 -8 -11 5 -4 9 -3 15 2 11 5 -3 12 -1 16 5 3 6 -3 10 -16 10 -19 0 -20 2 -8
18 12 15 12 16 -1 6 -22 -16 -49 -14 -43 4 5 12 2 12 -14 4 -24 -13 -33 -7
-33 22 0 19 0 19 -14 1 -13 -19 -15 -18 -29 15 -9 19 -16 27 -16 18 -1 -9 -6
-20 -12 -24 -7 -4 -9 0 -5 14 4 13 1 22 -9 26 -9 3 -14 2 -11 -2 3 -5 -1 -9
-8 -9 -9 0 -13 10 -11 24 2 23 2 23 -17 6 -12 -11 -18 -13 -16 -4 2 7 -7 20
-20 28 -21 15 -22 14 -16 -3 5 -18 5 -18 -9 -1 -14 17 -33 24 -23 9 3 -5 -1
-9 -7 -9 -7 0 -14 10 -15 21 -1 17 1 18 9 6 9 -12 10 -12 5 3 -3 10 -6 21 -6
24 0 2 -8 -3 -17 -12 -16 -16 -18 -16 -30 1 -8 11 -21 18 -29 16 -8 -2 -14 2
-14 8 0 5 -9 10 -21 10 -11 0 -18 4 -15 9 4 5 -4 7 -16 3 -14 -3 -19 -1 -14 6
3 6 1 14 -5 18 -7 4 -9 3 -5 -4 4 -6 -1 -10 -13 -9 -12 1 -17 6 -13 15 4 12 1
12 -16 3 -15 -8 -23 -8 -28 1 -5 7 -3 8 6 3 9 -5 11 -4 6 4 -6 9 -11 9 -24 -1
-12 -10 -14 -10 -8 0 9 15 -6 16 -22 0 -15 -15 -16 3 -2 20 6 6 7 10 4 7 -4
-2 -16 1 -28 7 -19 10 -20 10 -7 -5 8 -10 9 -17 3 -17 -6 0 -14 9 -17 21 -5
15 -10 17 -19 10 -9 -8 -19 -5 -34 10 -22 19 -32 13 -12 -7 7 -7 6 -11 -4 -11
-8 0 -15 3 -14 6 2 19 -4 24 -12 11 -8 -13 -10 -13 -10 2 0 12 -6 16 -21 13
-12 -3 -19 -2 -15 2 3 3 1 12 -5 20 -10 11 -16 11 -37 -3 -13 -9 -21 -11 -18
-5 4 6 3 11 -3 11 -6 0 -8 8 -5 18 2 9 -1 7 -7 -5 -7 -13 -16 -23 -21 -23 -5
0 -4 9 2 19 7 13 7 22 0 26 -10 6 -11 5 -14 -14 0 -5 -5 -13 -10 -18 -5 -4 -7
-3 -3 2 3 6 2 17 -4 25 -7 13 -9 12 -9 -2 0 -9 -5 -20 -12 -24 -7 -4 -8 -3 -4
5 4 7 5 19 2 28 -5 12 -9 13 -21 3 -9 -7 -15 -8 -15 -2 0 5 -7 13 -16 16 -14
5 -15 4 -5 -8 9 -11 9 -16 0 -22 -8 -5 -9 -3 -4 5 5 9 1 12 -11 11 -32 -4 -44
0 -44 11 0 8 6 7 18 -2 15 -12 16 -12 5 2 -7 9 -9 19 -5 24 4 4 -3 2 -15 -5
-13 -8 -19 -20 -15 -29 6 -17 4 -16 -18 13 -8 11 -10 17 -3 13 6 -4 14 -3 17
2 4 5 -2 8 -11 6 -10 -1 -27 5 -37 14 -17 14 -17 12 2 -16 17 -24 19 -33 10
-39 -7 -4 -10 -4 -6 1 11 12 -11 35 -28 28 -8 -3 -14 0 -14 7 0 6 6 8 13 4 6
-4 8 -3 4 2 -4 4 -24 7 -43 5 -19 -1 -34 2 -34 8 0 6 -5 11 -11 11 -5 0 -7 -6
-3 -12 4 -7 4 -10 -1 -6 -4 4 -15 2 -23 -5 -10 -8 -13 -8 -9 -1 5 8 -5 11 -33
9 -22 -1 -37 1 -35 6 3 4 14 6 24 4 10 -2 18 3 18 11 0 10 -4 11 -13 3 -8 -6
-14 -6 -18 0 -3 5 -1 12 4 14 6 3 5 4 -2 3 -7 -2 -12 -7 -11 -12 1 -5 -10 -15
-24 -21 -24 -12 -25 -11 -9 6 15 17 15 19 -1 32 -17 13 -17 13 -3 -5 14 -18
13 -19 -3 -13 -11 4 -16 3 -12 -3 3 -6 -1 -7 -9 -4 -9 3 -13 11 -9 18 4 6 -6
3 -21 -8 -16 -10 -26 -14 -23 -9 3 5 -3 15 -14 21 -19 12 -19 11 -8 -10 12
-23 11 -23 -16 2 -16 14 -25 19 -21 13 4 -7 3 -13 -1 -13 -5 0 -15 6 -22 13
-12 10 -13 9 -7 -7 6 -18 5 -18 -20 -1 -15 9 -23 12 -20 6 4 -6 0 -11 -8 -11
-9 0 -16 6 -16 13 0 8 -3 8 -8 2 -4 -6 -16 -10 -27 -10 -11 0 -26 -4 -34 -10
-11 -7 -13 -7 -8 2 10 17 -13 28 -25 12 -8 -11 -9 -10 -4 3 3 10 0 20 -6 24
-6 4 -8 3 -5 -2z m-815 -109 c-3 -3 -9 2 -12 12 -6 14 -5 15 5 6 7 -7 10 -15
7 -18z m-154 -53 c3 -5 -1 -9 -9 -9 -8 0 -12 4 -9 9 3 4 7 8 9 8 2 0 6 -4 9
-8z m2819 -457 c-3 -9 -8 -14 -10 -11 -3 3 -2 9 2 15 9 16 15 13 8 -4z m62
-34 c3 -5 2 -12 -3 -15 -5 -3 -9 1 -9 9 0 17 3 19 12 6z m-4100 -89 c-3 -3
-11 0 -18 7 -9 10 -8 11 6 5 10 -3 15 -9 12 -12z m4232 -8 c-3 -3 -12 -4 -19
-1 -8 3 -5 6 6 6 11 1 17 -2 13 -5z m48 -62 c-3 -3 -11 0 -18 7 -9 10 -8 11 6
5 10 -3 15 -9 12 -12z m-4499 -99 c-2 -9 -11 -17 -20 -19 -17 -2 -17 -2 0 17
21 23 23 23 20 2z m5148 -574 c-3 -5 -10 -7 -15 -3 -5 3 -7 10 -3 15 3 5 10 7
15 3 5 -3 7 -10 3 -15z m-3970 -307 c3 -5 -1 -9 -9 -9 -8 0 -12 4 -9 9 3 4 7
8 9 8 2 0 6 -4 9 -8z m250 0 c3 -5 -1 -9 -9 -9 -8 0 -12 4 -9 9 3 4 7 8 9 8 2
0 6 -4 9 -8z m3930 -33 c-3 -5 -10 -7 -15 -3 -5 3 -7 10 -3 15 3 5 10 7 15 3
5 -3 7 -10 3 -15z m-6074 -39 c0 -5 -2 -10 -4 -10 -3 0 -8 5 -11 10 -3 6 -1
10 4 10 6 0 11 -4 11 -10z m1371 -47 c13 -16 12 -17 -3 -4 -10 7 -18 15 -18
17 0 8 8 3 21 -13z m4779 -49 c0 -8 -19 -13 -24 -6 -3 5 1 9 9 9 8 0 15 -2 15
-3z m-6250 -83 c0 -5 -8 -15 -17 -22 -16 -12 -17 -12 -6 2 7 9 10 19 6 22 -3
4 -1 7 5 7 7 0 12 -4 12 -9z m2854 -20 c-3 -3 -11 -6 -17 -6 -7 0 -11 -9 -9
-20 2 -16 1 -17 -7 -5 -12 17 1 37 24 37 8 0 12 -3 9 -6z m-1604 -7 c0 -8 -19
-13 -24 -6 -3 5 1 9 9 9 8 0 15 -2 15 -3z m-132 -150 c-1 -5 -9 -9 -16 -10
-10 -2 -11 1 -1 12 12 14 24 13 17 -2z m1592 -59 c0 -2 -9 -3 -19 -2 -11 0
-18 5 -15 9 4 6 34 0 34 -7z m-1637 -10 c4 -8 3 -16 -1 -19 -4 -3 -9 4 -9 15
-2 23 3 25 10 4z m1603 -37 c4 -7 4 -10 -1 -6 -4 4 -17 3 -29 -3 -20 -10 -20
-10 -2 5 24 19 23 19 32 4z m-756 -29 c0 -6 7 -8 18 -4 14 5 15 4 4 -6 -10
-11 -15 -10 -29 4 -11 11 -13 17 -5 17 7 0 12 -5 12 -11z m-2040 -43 c0 -3 -4
-8 -10 -11 -5 -3 -10 -1 -10 4 0 6 5 11 10 11 6 0 10 -2 10 -4z m1695 -344
c-13 -9 -13 -22 0 -42 7 -13 6 -13 -7 -2 -13 10 -16 26 -9 50 1 1 7 2 14 2 8
0 8 -3 2 -8z m-1811 -26 c10 -16 12 -27 6 -31 -6 -4 -10 -3 -9 2 3 19 -2 27
-10 14 -7 -10 -9 -7 -8 12 1 15 3 27 3 27 1 0 9 -11 18 -24z m-29 -276 c3 -5
1 -10 -4 -10 -6 0 -11 5 -11 10 0 6 2 10 4 10 3 0 8 -4 11 -10z m-19 -35 c1
-8 -1 -17 -5 -19 -4 -3 -7 6 -7 19 0 25 8 25 12 0z m6854 -85 c0 -5 -7 -7 -15
-4 -8 4 -15 8 -15 10 0 2 7 4 15 4 8 0 15 -4 15 -10z m-4650 -6 c0 -8 -19 -13
-24 -6 -3 5 1 9 9 9 8 0 15 -2 15 -3z m115 -14 c3 -5 1 -10 -4 -10 -6 0 -11 5
-11 10 0 6 2 10 4 10 3 0 8 -4 11 -10z m65 0 c0 -5 -5 -10 -11 -10 -5 0 -7 5
-4 10 3 6 8 10 11 10 2 0 4 -4 4 -10z m474 -48 c3 -5 -1 -9 -9 -9 -8 0 -12 4
-9 9 3 4 7 8 9 8 2 0 6 -4 9 -8z m4007 -45 c-10 -9 -11 -8 -5 6 3 10 9 15 12
12 3 -3 0 -11 -7 -18z m-3817 -23 c5 -14 4 -15 -9 -4 -17 14 -19 20 -6 20 5 0
12 -7 15 -16z m3813 -14 c-1 -11 -5 -20 -9 -20 -3 0 -6 9 -5 20 1 11 5 20 9
20 3 0 6 -9 5 -20z m-5410 -79 c-1 -15 -4 -17 -14 -9 -15 12 -17 22 -3 13 6
-3 10 -1 10 4 0 6 2 11 4 11 3 0 4 -9 3 -19z m1793 -9 c0 -12 -3 -12 -15 -2
-8 7 -15 13 -15 15 0 1 7 2 15 2 8 0 15 -7 15 -15z m3625 -42 c-3 -5 -12 -10
-18 -10 -7 0 -6 4 3 10 19 12 23 12 15 0z m-3508 -35 c4 -4 3 -5 -4 -2 -6 4
-13 2 -15 -5 -3 -8 -6 -6 -10 4 -7 17 15 19 29 3z m3487 -31 c3 -8 2 -12 -4
-9 -6 3 -10 10 -10 16 0 14 7 11 14 -7z m-3357 -139 c0 -8 -4 -12 -9 -9 -5 3
-6 10 -3 15 9 13 12 11 12 -6z m-3455 -392 c-10 -4 -9 -9 5 -20 17 -13 16 -13
-5 -3 -22 11 -22 31 1 29 8 0 8 -2 -1 -6z m68 -283 c0 -5 -2 -10 -4 -10 -3 0
-8 5 -11 10 -3 6 -1 10 4 10 6 0 11 -4 11 -10z m7 -27 c-4 -3 -1 -13 6 -22 11
-14 10 -14 -5 -2 -16 12 -16 31 -1 31 4 0 3 -3 0 -7z m3540 -49 c-3 -3 -12 -4
-19 -1 -8 3 -5 6 6 6 11 1 17 -2 13 -5z m3058 -23 c3 -5 2 -12 -3 -15 -5 -3
-9 1 -9 9 0 17 3 19 12 6z m-6540 -99 c-3 -3 -11 0 -18 7 -9 10 -8 11 6 5 10
-3 15 -9 12 -12z m30 -62 c3 -6 -1 -7 -9 -4 -18 7 -21 14 -7 14 6 0 13 -4 16
-10z m2502 -5 c0 -8 -4 -12 -9 -9 -5 3 -6 10 -3 15 9 13 12 11 12 -6z m-83
-13 c3 -5 -1 -9 -9 -9 -8 0 -12 4 -9 9 3 4 7 8 9 8 2 0 6 -4 9 -8z m878 -119
c-10 -4 -10 -8 -1 -19 7 -8 7 -14 1 -14 -15 0 -22 26 -9 39 6 6 13 8 16 4 3
-3 0 -8 -7 -10z m2985 -269 c-3 -3 -12 -4 -19 -1 -8 3 -5 6 6 6 11 1 17 -2 13
-5z m-3707 -173 c0 -14 -29 -21 -36 -9 -4 6 -3 8 4 4 6 -3 13 -2 17 4 8 12 15
13 15 1z m25 0 c3 -5 2 -12 -3 -15 -5 -3 -9 1 -9 9 0 17 3 19 12 6z m-1706
-24 c0 -9 -2 -8 -6 1 -2 6 -10 9 -15 6 -7 -4 -8 -2 -4 5 9 13 26 5 25 -12z
m31 13 c0 -5 -2 -10 -4 -10 -3 0 -8 5 -11 10 -3 6 -1 10 4 10 6 0 11 -4 11
-10z m224 1 c3 -4 -4 -7 -14 -6 -27 2 -33 10 -10 12 11 1 22 -2 24 -6z m224
-16 c-3 -3 -9 2 -12 12 -6 14 -5 15 5 6 7 -7 10 -15 7 -18z m32 15 c0 -5 -2
-10 -4 -10 -3 0 -8 5 -11 10 -3 6 -1 10 4 10 6 0 11 -4 11 -10z m864 2 c2 -4
-4 -8 -14 -8 -10 0 -16 4 -14 8 3 4 9 8 14 8 5 0 11 -4 14 -8z m136 -2 c0 -5
-5 -10 -11 -10 -5 0 -7 5 -4 10 3 6 8 10 11 10 2 0 4 -4 4 -10z m89 -13 c0 -9
-2 -8 -6 1 -2 6 -10 9 -15 6 -7 -4 -8 -2 -4 5 9 13 26 5 25 -12z m31 13 c0 -5
-2 -10 -4 -10 -3 0 -8 5 -11 10 -3 6 -1 10 4 10 6 0 11 -4 11 -10z m-2183
-106 c-3 -3 -12 -4 -19 -1 -8 3 -5 6 6 6 11 1 17 -2 13 -5z m5627 -215 c-3 -5
-10 -7 -15 -3 -5 3 -7 10 -3 15 3 5 10 7 15 3 5 -3 7 -10 3 -15z m-312 -342
c-7 -8 -9 -16 -6 -20 3 -3 -4 -3 -17 0 l-23 6 22 8 c12 5 22 14 22 20 0 7 3 9
6 6 4 -4 2 -13 -4 -20z m-4712 -133 c0 -8 -19 -13 -24 -6 -3 5 1 9 9 9 8 0 15
-2 15 -3z m35 -34 c3 -5 2 -10 -4 -10 -5 0 -13 5 -16 10 -3 6 -2 10 4 10 5 0
13 -4 16 -10z m4489 -12 c-3 -4 -11 -5 -19 -1 -21 7 -19 12 4 10 11 0 18 -5
15 -9z m-104 -62 c0 -2 -7 -7 -16 -10 -8 -3 -12 -2 -9 4 6 10 25 14 25 6z
m-3919 -279 c-10 -9 -11 -8 -5 6 3 10 9 15 12 12 3 -3 0 -11 -7 -18z m3139
-201 c-10 -13 -40 -12 -40 1 0 3 7 3 15 0 8 -4 17 -2 20 3 4 6 9 10 12 10 3 0
0 -6 -7 -14z m-44 -18 c4 -7 3 -8 -4 -4 -7 4 -12 2 -12 -4 0 -6 -5 -8 -11 -4
-8 4 -7 9 2 15 18 11 17 11 25 -3z m-203 -65 c4 9 6 9 6 0 2 -20 -15 -23 -35
-7 -18 14 -18 15 3 5 16 -8 23 -8 26 2z m-2040 -66 c3 -8 -1 -14 -8 -14 -7 0
-11 6 -8 14 3 7 6 13 8 13 2 0 5 -6 8 -13z m1489 -89 c-7 -7 -12 -8 -12 -2 0
14 12 26 19 19 2 -3 -1 -11 -7 -17z m-908 -16 c3 -5 -1 -9 -9 -9 -8 0 -12 4
-9 9 3 4 7 8 9 8 2 0 6 -4 9 -8z m79 -13 c-8 -8 -13 -7 -18 2 -5 8 -4 10 3 5
7 -4 12 -2 12 5 0 7 3 9 7 6 4 -4 2 -12 -4 -18z m199 2 c8 11 9 11 6 1 -4 -16
-22 -18 -24 -2 -2 7 -1 6 3 -1 4 -8 8 -7 15 2z m113 -1 c-3 -5 -1 -10 6 -10 7
0 10 -3 6 -6 -9 -9 -28 6 -22 17 4 5 8 9 11 9 3 0 2 -4 -1 -10z"/>
<path d="M4150 8436 c0 -2 7 -9 15 -16 13 -11 14 -10 9 4 -5 14 -24 23 -24 12z"/>
<path d="M5190 8416 c0 -2 7 -7 16 -10 8 -3 12 -2 9 4 -6 10 -25 14 -25 6z"/>
<path d="M3735 8340 c3 -5 8 -10 11 -10 2 0 4 5 4 10 0 6 -5 10 -11 10 -5 0
-7 -4 -4 -10z"/>
<path d="M5690 8302 c0 -4 10 -9 22 -9 18 -2 20 0 8 7 -18 12 -30 13 -30 2z"/>
<path d="M6055 8180 c3 -5 8 -10 11 -10 2 0 4 5 4 10 0 6 -5 10 -11 10 -5 0
-7 -4 -4 -10z"/>
<path d="M3223 8145 c0 -8 4 -12 9 -9 5 3 6 10 3 15 -9 13 -12 11 -12 -6z"/>
<path d="M3070 8080 c0 -5 5 -10 10 -10 6 0 10 5 10 10 0 6 -4 10 -10 10 -5 0
-10 -4 -10 -10z"/>
<path d="M3033 8053 c0 -9 4 -10 14 -2 7 6 13 12 13 14 0 1 -6 2 -13 2 -8 0
-14 -6 -14 -14z"/>
<path d="M6381 7994 c0 -11 3 -14 6 -6 3 7 2 16 -1 19 -3 4 -6 -2 -5 -13z"/>
<path d="M2750 7879 c0 -5 5 -7 10 -4 6 3 10 8 10 11 0 2 -4 4 -10 4 -5 0 -10
-5 -10 -11z"/>
<path d="M2615 7800 c3 -5 8 -10 11 -10 2 0 4 5 4 10 0 6 -5 10 -11 10 -5 0
-7 -4 -4 -10z"/>
<path d="M2410 7666 c0 -3 9 -10 20 -16 11 -6 20 -8 20 -6 0 3 -9 10 -20 16
-11 6 -20 8 -20 6z"/>
<path d="M6990 7563 c0 -6 8 -17 18 -24 16 -13 16 -13 2 6 -8 11 -16 22 -17
24 -2 2 -3 0 -3 -6z"/>
<path d="M2120 7361 c0 -6 4 -13 10 -16 6 -3 7 1 4 9 -7 18 -14 21 -14 7z"/>
<path d="M7200 7361 c0 -6 4 -13 10 -16 6 -3 7 1 4 9 -7 18 -14 21 -14 7z"/>
<path d="M2041 7271 c-8 -5 -9 -11 -3 -15 5 -3 12 1 16 9 6 17 6 18 -13 6z"/>
<path d="M2015 7241 c3 -5 1 -12 -5 -16 -5 -3 -10 -14 -10 -23 1 -12 5 -10 15
8 17 30 18 40 4 40 -5 0 -8 -4 -4 -9z"/>
<path d="M7400 7102 c25 -21 41 -20 39 1 0 9 -2 9 -6 0 -3 -9 -11 -9 -31 3
l-27 16 25 -20z"/>
<path d="M7456 7053 c-6 -14 -5 -15 5 -6 7 7 10 15 7 18 -3 3 -9 -2 -12 -12z"/>
<path d="M3260 6638 c-12 -22 -12 -22 6 -6 10 10 15 20 12 24 -4 3 -12 -5 -18
-18z"/>
<path d="M3290 6649 c0 -5 5 -7 10 -4 6 3 10 8 10 11 0 2 -4 4 -10 4 -5 0 -10
-5 -10 -11z"/>
<path d="M7785 6481 c-6 -11 13 -26 22 -17 4 3 0 6 -8 6 -11 0 -11 2 1 10 9 6
10 10 3 10 -6 0 -14 -4 -18 -9z"/>
<path d="M2848 6447 c7 -8 8 -18 4 -22 -4 -5 -1 -5 6 -1 17 10 15 23 -4 30
-13 5 -14 4 -6 -7z"/>
<path d="M7867 6333 c-10 -9 -9 -23 1 -23 5 0 9 7 9 15 0 17 -1 18 -10 8z"/>
<path d="M2690 6295 c-7 -8 -11 -15 -9 -16 37 -7 40 -7 30 5 -6 7 -8 16 -4 19
3 4 4 7 1 7 -3 0 -11 -7 -18 -15z"/>
<path d="M7877 6269 c7 -7 15 -10 18 -7 3 3 -2 9 -12 12 -14 6 -15 5 -6 -5z"/>
<path d="M4242 6261 c-11 -7 -11 -9 0 -14 9 -3 15 1 15 9 0 8 -1 14 -1 14 -1
0 -7 -4 -14 -9z"/>
<path d="M3490 6139 c0 -5 5 -7 10 -4 6 3 10 8 10 11 0 2 -4 4 -10 4 -5 0 -10
-5 -10 -11z"/>
<path d="M4040 6120 c-9 -6 -10 -10 -3 -10 6 0 15 5 18 10 8 12 4 12 -15 0z"/>
<path d="M3850 6109 c0 -5 5 -7 10 -4 6 3 10 8 10 11 0 2 -4 4 -10 4 -5 0 -10
-5 -10 -11z"/>
<path d="M1350 6039 c0 -5 5 -7 10 -4 6 3 10 8 10 11 0 2 -4 4 -10 4 -5 0 -10
-5 -10 -11z"/>
<path d="M7981 5994 c0 -11 3 -14 6 -6 3 7 2 16 -1 19 -3 4 -6 -2 -5 -13z"/>
<path d="M1316 5953 c-6 -14 -5 -15 5 -6 7 7 10 15 7 18 -3 3 -9 -2 -12 -12z"/>
<path d="M7985 5940 c3 -5 11 -10 16 -10 6 0 7 5 4 10 -3 6 -11 10 -16 10 -6
0 -7 -4 -4 -10z"/>
<path d="M3110 5899 c0 -5 5 -7 10 -4 6 3 10 8 10 11 0 2 -4 4 -10 4 -5 0 -10
-5 -10 -11z"/>
<path d="M2478 5823 c7 -3 16 -2 19 1 4 3 -2 6 -13 5 -11 0 -14 -3 -6 -6z"/>
<path d="M8076 5593 c-6 -14 -5 -15 5 -6 7 7 10 15 7 18 -3 3 -9 -2 -12 -12z"/>
<path d="M3097 5556 c-4 -10 -1 -13 8 -9 8 3 12 9 9 14 -7 12 -11 11 -17 -5z"/>
<path d="M2455 5520 c-3 -6 1 -7 9 -4 18 7 21 14 7 14 -6 0 -13 -4 -16 -10z"/>
<path d="M1227 5489 c7 -7 15 -10 18 -7 3 3 -2 9 -12 12 -14 6 -15 5 -6 -5z"/>
<path d="M1213 5325 c0 -8 4 -12 9 -9 5 3 6 10 3 15 -9 13 -12 11 -12 -6z"/>
<path d="M8110 4966 c0 -2 7 -7 16 -10 8 -3 12 -2 9 4 -6 10 -25 14 -25 6z"/>
<path d="M4627 4918 c4 -7 8 -16 8 -20 0 -3 3 -9 7 -13 3 -4 5 1 3 12 -2 10
-4 21 -4 26 -1 4 -6 7 -12 7 -6 0 -7 -5 -2 -12z"/>
<path d="M3275 4770 c-3 -5 -1 -10 4 -10 6 0 11 5 11 10 0 6 -2 10 -4 10 -3 0
-8 -4 -11 -10z"/>
<path d="M8100 4719 c0 -5 5 -7 10 -4 6 3 10 8 10 11 0 2 -4 4 -10 4 -5 0 -10
-5 -10 -11z"/>
<path d="M1218 4693 c7 -3 16 -2 19 1 4 3 -2 6 -13 5 -11 0 -14 -3 -6 -6z"/>
<path d="M1230 4605 c0 -8 2 -15 4 -15 2 0 6 7 10 15 3 8 1 15 -4 15 -6 0 -10
-7 -10 -15z"/>
<path d="M4130 4606 c0 -2 6 -9 14 -15 11 -9 16 -9 22 0 4 8 3 9 -4 5 -7 -4
-12 -2 -12 3 0 6 -4 11 -10 11 -5 0 -10 -2 -10 -4z"/>
<path d="M1215 4569 c-4 -6 -5 -12 -2 -15 2 -3 7 2 10 11 7 17 1 20 -8 4z"/>
<path d="M4868 4443 c10 -4 10 -8 0 -21 -12 -15 -11 -16 4 -3 19 14 15 32 -5
30 -8 0 -8 -2 1 -6z"/>
<path d="M4205 4030 c-3 -5 -1 -10 4 -10 6 0 11 5 11 10 0 6 -2 10 -4 10 -3 0
-8 -4 -11 -10z"/>
<path d="M3990 3859 c0 -5 5 -7 10 -4 6 3 10 8 10 11 0 2 -4 4 -10 4 -5 0 -10
-5 -10 -11z"/>
<path d="M4602 3594 c-7 -8 -8 -14 -3 -14 10 0 25 19 20 25 -2 1 -10 -3 -17
-11z"/>
<path d="M7790 3606 c0 -2 7 -7 16 -10 8 -3 12 -2 9 4 -6 10 -25 14 -25 6z"/>
<path d="M7716 3438 c3 -4 11 -5 19 -1 21 7 19 12 -4 10 -11 0 -18 -5 -15 -9z"/>
<path d="M4296 3383 c-6 -14 -5 -15 5 -6 7 7 10 15 7 18 -3 3 -9 -2 -12 -12z"/>
<path d="M7670 3360 c0 -5 5 -10 10 -10 6 0 10 5 10 10 0 6 -4 10 -10 10 -5 0
-10 -4 -10 -10z"/>
<path d="M1977 3319 c7 -7 15 -10 18 -7 3 3 -2 9 -12 12 -14 6 -15 5 -6 -5z"/>
<path d="M2137 3319 c7 -7 15 -10 18 -7 3 3 -2 9 -12 12 -14 6 -15 5 -6 -5z"/>
<path d="M2937 3319 c7 -7 15 -10 18 -7 3 3 -2 9 -12 12 -14 6 -15 5 -6 -5z"/>
<path d="M3097 3319 c7 -7 15 -10 18 -7 3 3 -2 9 -12 12 -14 6 -15 5 -6 -5z"/>
<path d="M3606 3322 c-3 -5 1 -9 9 -9 8 0 12 4 9 9 -3 4 -7 8 -9 8 -2 0 -6 -4
-9 -8z"/>
<path d="M1826 3298 c3 -5 10 -6 15 -3 13 9 11 12 -6 12 -8 0 -12 -4 -9 -9z"/>
<path d="M7625 3290 c-3 -6 1 -7 9 -4 18 7 21 14 7 14 -6 0 -13 -4 -16 -10z"/>
<path d="M7505 3080 c-3 -6 1 -7 9 -4 18 7 21 14 7 14 -6 0 -13 -4 -16 -10z"/>
<path d="M7345 2901 c-3 -5 -2 -12 3 -15 5 -3 9 1 9 9 0 17 -3 19 -12 6z"/>
<path d="M1992 2864 c10 -10 20 -15 24 -12 3 4 -5 12 -18 18 -22 12 -22 12 -6
-6z"/>
<path d="M7177 2702 c-10 -10 -17 -23 -17 -28 0 -5 5 -1 11 10 9 15 13 16 20
5 6 -10 8 -7 6 9 -2 26 0 26 -20 4z"/>
<path d="M2306 2523 c-6 -14 -5 -15 5 -6 7 7 10 15 7 18 -3 3 -9 -2 -12 -12z"/>
<path d="M6840 2380 c-9 -6 -10 -10 -3 -10 6 0 15 5 18 10 8 12 4 12 -15 0z"/>
<path d="M6625 2231 c-3 -5 -1 -12 5 -16 6 -4 7 -11 4 -17 -4 -7 -2 -8 5 -4 8
6 9 12 2 20 -6 7 -8 16 -4 19 3 4 4 7 0 7 -3 0 -8 -4 -12 -9z"/>
<path d="M3130 1959 c0 -5 5 -7 10 -4 6 3 10 8 10 11 0 2 -4 4 -10 4 -5 0 -10
-5 -10 -11z"/>
<path d="M3430 1829 c0 -5 5 -7 10 -4 6 3 10 8 10 11 0 2 -4 4 -10 4 -5 0 -10
-5 -10 -11z"/>
<path d="M3544 1798 c-4 -7 -4 -10 1 -6 4 4 16 3 26 -2 12 -7 20 -6 25 2 4 7
4 10 -1 6 -4 -4 -16 -3 -26 2 -12 7 -20 6 -25 -2z"/>
<path d="M3635 1770 c3 -5 8 -10 11 -10 2 0 4 5 4 10 0 6 -5 10 -11 10 -5 0
-7 -4 -4 -10z"/>
<path d="M5443 1713 c-7 -3 -13 -8 -13 -13 0 -10 24 -7 28 4 5 11 -1 14 -15 9z"/>
<path d="M4123 1655 c0 -8 4 -12 9 -9 5 3 6 10 3 15 -9 13 -12 11 -12 -6z"/>
<path d="M4817 1623 c3 -7 6 -13 8 -13 2 0 5 6 8 13 3 8 -1 14 -8 14 -7 0 -11
-6 -8 -14z"/>
<path d="M4631 1614 c0 -11 3 -14 6 -6 3 7 2 16 -1 19 -3 4 -6 -2 -5 -13z"/>
<path d="M4676 1602 c-2 -4 4 -8 14 -8 10 0 16 4 14 8 -3 4 -9 8 -14 8 -5 0
-11 -4 -14 -8z"/>
</g>
</svg>
