<svg width="21" height="18" viewBox="0 0 21 18" fill="none" xmlns="http://www.w3.org/2000/svg">
<path d="M10.7876 16.2027C12.9256 16.2027 14.976 15.4695 16.4878 14.1645C17.9996 12.8595 18.8489 11.0895 18.8489 9.24393C18.8489 7.39835 17.9996 5.62836 16.4878 4.32334C14.976 3.01832 12.9256 2.28517 10.7876 2.28517C8.64958 2.28517 6.59914 3.01832 5.08735 4.32334C3.57555 5.62836 2.72624 7.39835 2.72624 9.24393C2.72624 11.0895 3.57555 12.8595 5.08735 14.1645C6.59914 15.4695 8.64958 16.2027 10.7876 16.2027ZM20.8643 9.24393C20.8643 14.0481 16.3529 17.9424 10.7876 17.9424C5.22223 17.9424 0.710901 14.0481 0.7109 9.24393C0.7109 4.43978 5.22223 0.54548 10.7876 0.54548C16.3529 0.545479 20.8643 4.43978 20.8643 9.24393ZM11.0828 13.3383C10.8939 13.1752 10.7878 12.954 10.7878 12.7233C10.7878 12.4927 10.8939 12.2715 11.0828 12.1083L13.3934 10.1138L5.74924 10.1138C5.48199 10.1138 5.22568 10.0221 5.03671 9.859C4.84774 9.69588 4.74157 9.47463 4.74157 9.24393C4.74157 9.01324 4.84774 8.79199 5.03671 8.62886C5.22568 8.46573 5.48199 8.37409 5.74924 8.37409L13.3934 8.37409L11.0828 6.37953C10.8993 6.21548 10.7977 5.99575 10.8 5.76768C10.8023 5.53961 10.9083 5.32144 11.0951 5.16017C11.2819 4.99889 11.5347 4.90741 11.7989 4.90543C12.0631 4.90344 12.3176 4.99112 12.5077 5.14957L16.5383 8.62895C16.7272 8.79207 16.8334 9.01328 16.8334 9.24393C16.8334 9.47458 16.7272 9.69579 16.5383 9.85891L12.5077 13.3383C12.3187 13.5014 12.0624 13.593 11.7952 13.593C11.528 13.593 11.2718 13.5014 11.0828 13.3383Z" fill="#9B8855"/>
</svg>
