<svg width="24" height="24" viewBox="0 0 24 24" fill="none" xmlns="http://www.w3.org/2000/svg">
<path d="M16.536 24V14.712H19.6467L20.112 11.1013H16.536V8.79733C16.536 7.752 16.8267 7.03867 18.3253 7.03867H20.2373V3.80933C19.3117 3.71113 18.3815 3.6635 17.4507 3.66667C14.6947 3.66667 12.808 5.34933 12.808 8.44V11.1013H9.69067V14.712H12.808V24H1.33333C0.979711 24 0.640573 23.8595 0.390524 23.6095C0.140476 23.3594 0 23.0203 0 22.6667V1.33333C0 0.979711 0.140476 0.640573 0.390524 0.390524C0.640573 0.140476 0.979711 0 1.33333 0H22.6667C23.0203 0 23.3594 0.140476 23.6095 0.390524C23.8595 0.640573 24 0.979711 24 1.33333V22.6667C24 23.0203 23.8595 23.3594 23.6095 23.6095C23.3594 23.8595 23.0203 24 22.6667 24H16.536Z" fill="white"/>
</svg>
