<svg width="24" height="28" viewBox="0 0 24 28" fill="none" xmlns="http://www.w3.org/2000/svg">
<g clip-path="url(#clip0_1370_13253)">
<path d="M12 11.083C11.4349 11.0832 10.8825 11.2544 10.4128 11.5751C9.94298 11.8958 9.57689 12.3514 9.36078 12.8845C9.14466 13.4175 9.08823 14.004 9.19861 14.5698C9.30899 15.1355 9.58122 15.6552 9.98089 16.063C10.3806 16.4709 10.8897 16.7486 11.444 16.8611C11.9983 16.9735 12.5728 16.9157 13.0948 16.6949C13.6169 16.4741 14.0631 16.1002 14.3771 15.6205C14.691 15.1408 14.8586 14.5769 14.8586 14C14.858 13.2263 14.5566 12.4846 14.0206 11.9376C13.4846 11.3906 12.7579 11.0833 12 11.083ZM18.6809 8.84078C18.5354 8.46445 18.3158 8.12264 18.0355 7.83656C17.7553 7.55048 17.4204 7.32623 17.0518 7.17773C15.9268 6.72437 13.2482 6.82609 12 6.82609C10.7518 6.82609 8.07589 6.72055 6.94768 7.17773C6.57902 7.32623 6.24419 7.55048 5.96395 7.83656C5.68371 8.12264 5.46404 8.46445 5.31857 8.84078C4.875 9.98922 4.97411 12.7263 4.97411 13.9995C4.97411 15.2726 4.875 18.0064 5.32071 19.1587C5.46618 19.535 5.68585 19.8768 5.96609 20.1629C6.24633 20.449 6.58117 20.6732 6.94982 20.8217C8.07482 21.2751 10.7534 21.1734 12.0021 21.1734C13.2509 21.1734 15.9257 21.2789 17.0539 20.8217C17.4226 20.6732 17.7574 20.449 18.0377 20.1629C18.3179 19.8768 18.5376 19.535 18.683 19.1587C19.1304 18.0102 19.0275 15.2731 19.0275 14C19.0275 12.7269 19.1304 9.99359 18.683 8.84133L18.6809 8.84078ZM12 18.4844C11.1312 18.4844 10.2819 18.2214 9.55946 17.7286C8.83706 17.2359 8.27401 16.5355 7.94153 15.7161C7.60904 14.8967 7.52205 13.995 7.69155 13.1251C7.86105 12.2553 8.27943 11.4562 8.89378 10.8291C9.50813 10.2019 10.2909 9.77482 11.143 9.60179C11.9951 9.42876 12.8784 9.51757 13.6811 9.85698C14.4838 10.1964 15.1698 10.7712 15.6525 11.5086C16.1352 12.2461 16.3929 13.1131 16.3929 14C16.3936 14.5891 16.2804 15.1726 16.0599 15.7169C15.8394 16.2613 15.5158 16.756 15.1078 17.1725C14.6997 17.5891 14.2152 17.9194 13.6819 18.1445C13.1486 18.3696 12.5771 18.4851 12 18.4844ZM16.5739 10.3742C16.3711 10.3743 16.1728 10.313 16.0041 10.1981C15.8354 10.0831 15.7039 9.91969 15.6262 9.72844C15.5486 9.53719 15.5282 9.32671 15.5677 9.12363C15.6072 8.92055 15.7048 8.73399 15.8482 8.58755C15.9915 8.44111 16.1742 8.34137 16.3732 8.30093C16.5721 8.2605 16.7783 8.2812 16.9657 8.36041C17.153 8.43961 17.3132 8.57377 17.4259 8.74592C17.5386 8.91806 17.5988 9.12046 17.5988 9.3275C17.5993 9.46499 17.5733 9.60124 17.5221 9.72844C17.471 9.85564 17.3958 9.97128 17.3008 10.0687C17.2058 10.1662 17.0928 10.2435 16.9685 10.2963C16.8441 10.3491 16.7108 10.3763 16.5761 10.3764L16.5739 10.3742ZM21.4286 1.75H2.57143C1.88944 1.75 1.23539 2.02656 0.753154 2.51884C0.270918 3.01113 0 3.67881 0 4.375L0 23.625C0 24.3212 0.270918 24.9889 0.753154 25.4812C1.23539 25.9734 1.88944 26.25 2.57143 26.25H21.4286C22.1106 26.25 22.7646 25.9734 23.2468 25.4812C23.7291 24.9889 24 24.3212 24 23.625V4.375C24 3.67881 23.7291 3.01113 23.2468 2.51884C22.7646 2.02656 22.1106 1.75 21.4286 1.75ZM20.5114 17.6094C20.4423 19.011 20.1289 20.253 19.1266 21.2734C18.1243 22.2939 16.9088 22.6204 15.5373 22.6871C14.1225 22.7686 9.88071 22.7686 8.46589 22.6871C7.09286 22.6166 5.88054 22.2961 4.87661 21.2734C3.87268 20.2508 3.55714 19.0083 3.49179 17.6094C3.41196 16.1645 3.41196 11.8338 3.49179 10.3906C3.56089 8.98898 3.87054 7.74703 4.87661 6.72656C5.88268 5.70609 7.09821 5.38344 8.46589 5.31672C9.88071 5.23523 14.1225 5.23523 15.5373 5.31672C16.9104 5.38727 18.1264 5.70773 19.1266 6.73039C20.1268 7.75305 20.4461 8.99555 20.5114 10.3972C20.5913 11.8366 20.5913 16.1634 20.5114 17.6094Z" fill="white"/>
</g>
<defs>
<clipPath id="clip0_1370_13253">
<rect width="24" height="28" fill="white"/>
</clipPath>
</defs>
</svg>
