<svg width="27" height="28" viewBox="0 0 27 28" fill="none" xmlns="http://www.w3.org/2000/svg">
<path d="M23.423 1.75H3.70617C2.62881 1.75 1.6875 2.55391 1.6875 3.65805V24.1505C1.6875 25.2607 2.62881 26.25 3.70617 26.25H23.4172C24.5004 26.25 25.3125 25.2541 25.3125 24.1505V3.65805C25.3188 2.55391 24.5004 1.75 23.423 1.75ZM9.01072 22.172H5.62623V11.2591H9.01072V22.172ZM7.43555 9.59984H7.41129C6.32812 9.59984 5.62676 8.76367 5.62676 7.71695C5.62676 6.65109 6.34658 5.83461 7.454 5.83461C8.56143 5.83461 9.23906 6.64508 9.26332 7.71695C9.26279 8.76367 8.56143 9.59984 7.43555 9.59984ZM21.3801 22.172H17.9956V16.205C17.9956 14.7755 17.5031 13.7987 16.2786 13.7987C15.3431 13.7987 14.7894 14.455 14.5431 15.0943C14.4508 15.324 14.426 15.6368 14.426 15.9562V22.172H11.0415V11.2591H14.426V12.7777C14.9186 12.0504 15.6879 11.0037 17.4783 11.0037C19.7 11.0037 21.3806 12.5223 21.3806 15.7965L21.3801 22.172Z" fill="white"/>
</svg>
