<svg width="26" height="34" viewBox="0 0 26 34" fill="none" xmlns="http://www.w3.org/2000/svg">
<path d="M12.9777 0.399414C6.08465 0.399414 0.491699 5.18727 0.491699 11.0869C0.491699 20.5869 12.9777 33.6494 12.9777 33.6494C12.9777 33.6494 25.4637 20.5869 25.4637 11.0869C25.4637 5.18727 19.8707 0.399414 12.9777 0.399414ZM12.9777 17.0244C11.9899 17.0244 11.0243 16.7458 10.203 16.2239C9.38163 15.702 8.74149 14.9601 8.36347 14.0922C7.98546 13.2242 7.88655 12.2691 8.07926 11.3477C8.27197 10.4263 8.74764 9.57996 9.44612 8.91566C10.1446 8.25136 11.0345 7.79896 12.0033 7.61568C12.9722 7.4324 13.9764 7.52647 14.889 7.88599C15.8016 8.2455 16.5816 8.85432 17.1304 9.63546C17.6792 10.4166 17.9721 11.335 17.9721 12.2744C17.9706 13.5338 17.444 14.7412 16.5077 15.6317C15.5714 16.5222 14.3018 17.023 12.9777 17.0244Z" fill="white"/>
</svg>
