<svg width="28" height="26" viewBox="0 0 28 26" fill="none" xmlns="http://www.w3.org/2000/svg">
<path d="M3.87044 0C1.75335 0 0.0371094 1.9401 0.0371094 4.33333V7.8C0.0371094 17.8516 7.24533 26 16.1371 26H19.2038C21.3208 26 23.0371 24.0599 23.0371 21.6667V19.2712C23.0371 18.2865 22.5449 17.3862 21.7657 16.9457L18.0613 14.8519C16.8093 14.1443 15.2933 14.8542 14.8507 16.3553L14.3941 17.9036C14.2207 18.4919 13.6868 18.8422 13.1489 18.7205C9.78187 17.9594 7.15001 14.9842 6.4766 11.178C6.36902 10.5699 6.67883 9.96642 7.19926 9.77032L8.89916 9.12978C10.0393 8.70015 10.6947 7.35063 10.4032 6.03261L9.50458 1.96941C9.24861 0.811973 8.32864 0 7.27325 0H3.87044Z" fill="white"/>
</svg>
